<?xml version="1.0" encoding="UTF-8"?>
<svg id="Layer_1" data-name="Layer 1" xmlns="http://www.w3.org/2000/svg" viewBox="0 0 3324.65 635.95">
  <defs>
    <style>
      .cls-1 {
        stroke-width: 16px;
      }

      .cls-1, .cls-2 {
        fill: #33669a;
        stroke: #33669b;
        stroke-miterlimit: 10;
      }
    </style>
  </defs>
  <g>
    <g>
      <polygon class="cls-1" points="3290.23 267.74 2985.5 417.2 2973.96 422.87 2561.11 625.36 2979.1 400.22 2998.54 389.75 3180.07 291.99 3024.29 289.04 3004.29 288.67 2880.15 286.31 2880.12 286.31 2862.38 285.98 1832 266.52 3030.96 267.52 3290.23 267.74"/>
      <line class="cls-1" x1="1832" y1="266.53" x2="66.69" y2="266.53"/>
      <polygon class="cls-1" points="2942.15 633.85 3052.54 127.12 2739.62 423.71 3106.29 29.2 2942.15 633.85"/>
    </g>
    <g>
      <path class="cls-2" d="M201.88,413.13c-10.81,46.96-56.07,67.49-101.71,67.49-64.5,0-85.97-36.34-73.54-90.38,10.43-53.1,52.85-88.97,115.06-88.97,46.4,0,81.65,17.46,70.39,67.49h-66.8c3.43-19.35-3.35-23.13-12.27-23.13-18.87,0-24.78,17.94-31.08,45.31-5.97,25.96-8.9,45.31,9.46,45.31,9.43,0,17-5.19,22.15-23.13h68.33Z"/>
      <path class="cls-2" d="M258.21,305.76h61.7l-15.64,67.97h.51c11.86-12.74,23.88-19.59,44.79-19.59,25.75,0,41.65,11.8,34.42,43.19l-18.14,78.82h-61.7l16.89-73.39c2.01-8.73-.67-13.69-8.07-13.69-6.88,0-13.11,3.78-15.28,13.22l-17,73.87h-61.7l39.21-170.39Z"/>
      <path class="cls-2" d="M495.82,390c1.36-5.9-1.14-9.44-9.81-9.44-7.65,0-12.27,2.36-15.32,12.27h-50.99c9.37-31.86,42.56-38.7,74.94-38.7,49.21,0,61.7,14.4,55.35,42.01l-18.41,80h-54.05l1.08-11.33c-11.42,10.86-25.86,14.87-39.88,14.87-26.01,0-41.43-12.74-36.05-36.11,6.73-29.26,35-41.3,82.93-41.3h7.39l2.82-12.27ZM487.89,424.46h-8.41c-16.32,0-21.52,7.08-23.04,13.69-1.74,7.55,2.02,12.27,11.45,12.27,10.71,0,15.49-6.37,17.72-16.05l2.28-9.91Z"/>
      <path class="cls-2" d="M594.54,357.67h60.17l-1.46,12.98c11.37-10.62,20.65-14.4,28.55-14.4,5.1,0,10.34.47,15.56,3.3l-9.88,42.95c-6.76-1.65-14.03-3.3-24.99-3.3-11.73,0-17.49,7.32-19.23,14.87l-14.28,62.07h-61.7l27.26-118.47Z"/>
      <path class="cls-2" d="M793.36,458.68h-.51c-12.57,12.51-29.03,15.34-43.3,15.34-25.24,0-51.92-13.69-42.04-56.64,10.21-44.37,39.03-63.25,70.9-63.25,15.04,0,27.32,4.25,32.66,16.52h.51l4.01-12.98h58.13l-24.82,107.85c-11.08,48.14-45.14,58.76-90.77,58.76-49.97,0-63.36-16.05-60.63-40.12h60.68c-.6,2.6-.17,5.19,1.74,6.84,1.91,1.65,5.01,2.6,9.35,2.6,10.71,0,17.26-5.19,20.68-20.06l3.42-14.87ZM801.32,415.26c3.2-13.92,6.35-27.61-8.18-27.61s-19.01,17.23-22.05,30.44c-3.31,14.4-4.98,23.83,8.54,23.83,15.3,0,18.38-12.27,21.69-26.67Z"/>
      <path class="cls-2" d="M1034.44,438.15c-10.78,26.9-36.33,41.54-84.26,41.54-37.48,0-67.55-15.58-56.52-63.48,9.39-40.83,44.11-62.07,90.01-62.07,48.44,0,66.38,22.89,56.65,65.13l-1.85,8.02h-88.22l-.81,3.54c-3.15,13.69.59,19.59,12.83,19.59,6.88,0,14.38-3.78,18.12-12.27h54.05ZM988.64,402.28l.38-1.65c2.61-11.33-2.41-17.23-12.1-17.23s-17.93,5.9-20.54,17.23l-.38,1.65h32.63Z"/>
      <path class="cls-2" d="M1207.93,305.76h72.92l-39.21,170.39h-72.92l39.21-170.39Z"/>
      <path class="cls-2" d="M1307.14,357.67h60.17l-2.6,17.93h.51c14.36-16.99,30.69-21.47,45.23-21.47,25.75,0,41.65,11.8,34.42,43.19l-18.14,78.82h-61.7l16.89-73.39c2.01-8.73-.67-13.69-8.07-13.69-6.88,0-13.11,3.78-15.28,13.22l-17,73.87h-61.7l27.26-118.47Z"/>
      <path class="cls-2" d="M1554.82,462.46c-13.8,13.45-29.72,17.23-43.74,17.23-31.1,0-48.18-22.18-38.52-64.19,10.32-44.84,38.85-61.36,66.64-61.36,14.28,0,26.92,3.78,34.68,14.4l14.45-62.77h61.7l-39.21,170.39h-58.13l2.13-13.69ZM1565.97,398.5c.04-6.84-3.88-10.86-10.76-10.86-12.75,0-16.92,10.38-21.27,29.26-3.69,16.05-5.2,29.26,8.05,29.26,6.88,0,10.34-2.83,12.94-6.37,2.6-3.54,4.99-10.62,7.82-22.89,2.39-10.38,3.1-13.45,3.22-18.41Z"/>
      <path class="cls-2" d="M1793.88,476.14h-60.17l2.6-17.94h-.51c-14.36,16.99-30.69,21.48-45.23,21.48-25.75,0-41.65-11.8-34.42-43.19l18.14-78.82h61.7l-16.89,73.39c-2.01,8.73.67,13.69,8.07,13.69,6.88,0,13.11-3.78,15.28-13.22l17-73.87h61.7l-27.26,118.47Z"/>
      <path class="cls-2" d="M1925.93,394.25c1.36-5.9,1.1-9.2-.51-11.09-1.61-1.89-4.5-2.6-8.58-2.6-10.2,0-14.07,3.54-15.27,8.73-1.19,5.19.76,7.79,16.59,9.91,48.25,6.37,59.44,15.34,54.12,38.47-5.92,25.72-28.79,42.01-79.78,42.01-41.56,0-64.45-11.33-57.68-42.95h55.58c-1.27,6.61-.91,10.62.84,12.98,1.95,2.6,5.05,3.54,9.38,3.54,9.69,0,13.53-4.48,14.83-10.15.82-3.54.15-7.32-7.42-8.73-3.66-.71-8.29-1.65-26.14-4.96-30.06-5.66-40.39-13.92-35.4-35.63s27.74-39.65,73.37-39.65c39.52,0,64.74,8.97,58.59,40.12h-52.52Z"/>
      <path class="cls-2" d="M2023.19,392.6h-16.57l8.04-34.93h16.57l4.4-19.12,66.26-19.82-8.96,38.94h27.79l-8.04,34.93h-27.79l-8.36,36.34c-2.06,8.97.29,12.04,7.68,12.04,4.33,0,9.43,0,15.37-1.42l-8.04,34.93c-14.67,2.83-30,5.19-42.24,5.19-23.97,0-44.57-6.84-38.49-33.28l12.38-53.81Z"/>
      <path class="cls-2" d="M2147.24,357.67h60.17l-1.46,12.98c11.37-10.62,20.65-14.4,28.55-14.4,5.1,0,10.34.47,15.56,3.3l-9.88,42.95c-6.76-1.65-14.03-3.3-24.99-3.3-11.73,0-17.49,7.32-19.23,14.87l-14.28,62.07h-61.7l27.26-118.47Z"/>
      <path class="cls-2" d="M2276.5,357.67h61.7l-27.26,118.47h-61.7l27.26-118.47ZM2288.45,305.76h61.7l-8.36,36.34h-61.7l8.36-36.34Z"/>
      <path class="cls-2" d="M2497.39,438.15c-10.78,26.9-36.33,41.54-84.26,41.54-37.48,0-67.55-15.58-56.53-63.48,9.39-40.83,44.11-62.07,90-62.07,48.44,0,66.38,22.89,56.66,65.13l-1.85,8.02h-88.22l-.81,3.54c-3.15,13.69.59,19.59,12.83,19.59,6.88,0,14.38-3.78,18.12-12.27h54.05ZM2451.59,402.28l.38-1.65c2.61-11.33-2.41-17.23-12.1-17.23s-17.93,5.9-20.54,17.23l-.38,1.65h32.63Z"/>
      <path class="cls-2" d="M2619.67,394.25c1.36-5.9,1.1-9.2-.51-11.09-1.61-1.89-4.5-2.6-8.58-2.6-10.2,0-14.07,3.54-15.27,8.73-1.19,5.19.76,7.79,16.59,9.91,48.25,6.37,59.44,15.34,54.12,38.47-5.92,25.72-28.79,42.01-79.78,42.01-41.56,0-64.45-11.33-57.68-42.95h55.58c-1.27,6.61-.91,10.62.84,12.98,1.95,2.6,5.05,3.54,9.38,3.54,9.69,0,13.53-4.48,14.83-10.15.81-3.54.15-7.32-7.42-8.73-3.66-.71-8.29-1.65-26.14-4.96-30.06-5.66-40.39-13.92-35.4-35.63s27.74-39.65,73.37-39.65c39.52,0,64.74,8.97,58.59,40.12h-52.52Z"/>
    </g>
  </g>
  <rect class="cls-2" x="60.15" y="259.91" width="13.08" height="13.08" transform="translate(-168.88 125.2) rotate(-45)"/>
</svg>