<?xml version="1.0" encoding="UTF-8"?>
<svg id="Layer_1" data-name="Layer 1" xmlns="http://www.w3.org/2000/svg" viewBox="0 0 3267.22 635.95">
  <defs>
    <style>
      .cls-1 {
        stroke: #be1e2d;
        stroke-miterlimit: 10;
        stroke-width: 16px;
      }

      .cls-1, .cls-2 {
        fill: #ed1c24;
      }

      .cls-2 {
        stroke-width: 0px;
      }
    </style>
  </defs>
  <g>
    <g>
      <polygon class="cls-1" points="3232.8 267.74 2928.06 417.2 2916.52 422.87 2503.67 625.36 2921.67 400.22 2941.1 389.75 3122.64 291.99 2966.85 289.04 2946.85 288.67 2822.71 286.31 2822.69 286.31 2804.95 285.98 1774.56 266.52 2973.52 267.52 3232.8 267.74"/>
      <line class="cls-1" x1="1774.56" y1="266.53" x2="9.25" y2="266.53"/>
      <polygon class="cls-1" points="2884.71 633.85 2995.11 127.12 2682.18 423.71 3048.85 29.2 2884.71 633.85"/>
    </g>
    <g>
      <path class="cls-2" d="M26.16,509.14v-189.7h113.82v37.94h-56.91v113.82h56.91v37.94H26.16Z"/>
      <path class="cls-2" d="M253.26,509.14v-75.88h-18.97v75.88h-56.91v-189.7h56.91v75.88h18.97v-75.88h56.91v189.7h-56.91Z"/>
      <path class="cls-2" d="M423.44,509.14v-75.88h-18.97v75.88h-56.91v-189.7h132.79v189.7h-56.91ZM423.44,357.38h-18.97v37.94h18.97v-37.94Z"/>
      <path class="cls-2" d="M593.63,509.14v-75.88h-18.97v75.88h-56.91v-189.7h132.79v75.88h-18.97v18.97h18.97v94.85h-56.91ZM593.63,357.38h-18.97v37.94h18.97v-37.94Z"/>
      <path class="cls-2" d="M687.94,509.14v-189.7h132.79v37.94h-75.88v113.82h18.97v-75.88h56.91v113.82h-132.79Z"/>
      <path class="cls-2" d="M858.12,509.14v-189.7h132.79v37.94h-75.88v37.94h56.91v37.94h-56.91v37.94h75.88v37.94h-132.79Z"/>
      <path class="cls-2" d="M1092.81,509.14v-189.7h56.91v189.7h-56.91Z"/>
      <path class="cls-2" d="M1281.97,509.14v-37.94h-18.97v-37.94h-18.97v75.88h-56.91v-189.7h56.91v37.94h18.97v37.94h18.97v-75.88h56.91v189.7h-56.91Z"/>
      <path class="cls-2" d="M1376.27,509.14v-189.7h113.82v18.97h18.97v151.76h-18.97v18.97h-113.82ZM1452.15,357.38h-18.97v113.82h18.97v-113.82Z"/>
      <path class="cls-2" d="M1546.46,509.14v-189.7h56.91v151.76h18.97v-151.76h56.91v189.7h-132.79Z"/>
      <path class="cls-2" d="M1716.64,509.14v-37.94h75.88v-37.94h-75.88v-113.82h132.79v37.94h-75.88v37.94h75.88v113.82h-132.79Z"/>
      <path class="cls-2" d="M1924.77,509.14v-151.76h-37.94v-37.94h132.79v37.94h-37.94v151.76h-56.91Z"/>
      <path class="cls-2" d="M2132.9,509.14v-75.88h-18.97v75.88h-56.91v-189.7h132.79v75.88h-18.97v18.97h18.97v94.85h-56.91ZM2132.9,357.38h-18.97v37.94h18.97v-37.94Z"/>
      <path class="cls-2" d="M2227.21,509.14v-189.7h56.91v189.7h-56.91Z"/>
      <path class="cls-2" d="M2321.51,509.14v-189.7h132.79v37.94h-75.88v37.94h56.91v37.94h-56.91v37.94h75.88v37.94h-132.79Z"/>
      <path class="cls-2" d="M2491.7,509.14v-37.94h75.88v-37.94h-75.88v-113.82h132.79v37.94h-75.88v37.94h75.88v113.82h-132.79Z"/>
    </g>
  </g>
  <rect class="cls-2" x="2.71" y="259.91" width="13.08" height="13.08" transform="translate(-185.7 84.58) rotate(-45)"/>
</svg>