<?xml version="1.0" encoding="UTF-8" standalone="no"?>
<!DOCTYPE svg PUBLIC "-//W3C//DTD SVG 1.1//EN" "http://www.w3.org/Graphics/SVG/1.1/DTD/svg11.dtd">
<svg width="100%" height="100%" viewBox="0 0 1184 212" version="1.1" xmlns="http://www.w3.org/2000/svg" xmlns:xlink="http://www.w3.org/1999/xlink" xml:space="preserve" xmlns:serif="http://www.serif.com/" style="fill-rule:evenodd;clip-rule:evenodd;stroke-linejoin:round;stroke-miterlimit:2;">
    <g transform="matrix(1,0,0,1,-406,-434)">
        <g transform="matrix(2.12099e-17,0.346384,-0.346384,2.12099e-17,738.065,266.038)">
            <path d="M626.333,399.388C703.271,399.388 765.736,461.853 765.736,538.791C765.736,615.73 703.271,678.195 626.333,678.195C549.394,678.195 486.929,615.73 486.929,538.791C486.929,461.853 549.394,399.388 626.333,399.388ZM790.919,678.195C867.858,678.195 930.322,740.659 930.322,817.598C930.322,894.536 867.858,957.001 790.919,957.001C713.981,957.001 651.516,894.536 651.516,817.598C651.516,740.659 713.981,678.195 790.919,678.195ZM955.506,399.388C1032.44,399.388 1094.91,461.853 1094.91,538.791C1094.91,615.73 1032.44,678.195 955.506,678.195C878.567,678.195 816.103,615.73 816.103,538.791C816.103,461.853 878.567,399.388 955.506,399.388ZM779.095,246.025L779.095,285.223L604.008,285.223L604.008,188.533C604.008,145.415 623.084,120.85 656.534,120.85C685.018,120.85 702.004,137.314 705.14,170.241L707.231,170.241C711.412,154.561 719.774,148.551 732.057,142.018L779.095,116.669L779.095,162.14L733.624,186.181C720.036,193.237 715.593,199.77 715.593,220.154L715.593,246.025L779.095,246.025ZM639.287,246.025L686.063,246.025L686.063,188.795C686.063,170.241 680.837,161.878 662.544,161.878C645.297,161.878 639.287,170.241 639.287,188.795L639.287,246.025ZM781.708,34.614C781.708,79.3 755.053,109.352 713.764,109.352C671.952,109.352 645.558,79.3 645.558,34.614C645.558,-10.073 671.952,-40.125 713.764,-40.125C755.053,-40.125 781.708,-10.073 781.708,34.614ZM746.952,34.614C746.952,8.22 736.76,-1.188 713.764,-1.188C690.767,-1.188 680.053,8.22 680.053,34.614C680.053,61.269 690.767,70.415 713.764,70.415C736.76,70.415 746.952,61.269 746.952,34.614ZM779.095,-95.265L779.095,-56.066L648.172,-56.066L648.172,-92.39L687.893,-92.39L687.893,-94.481C665.942,-97.616 645.558,-110.683 645.558,-143.609C645.558,-173.923 664.112,-189.341 688.415,-192.216L688.415,-194.568C666.203,-197.704 645.558,-211.031 645.558,-244.742C645.558,-278.453 667.771,-294.916 697.562,-294.916L779.095,-294.916L779.095,-255.717L710.628,-255.717C688.938,-255.717 680.837,-248.139 680.837,-225.665C680.837,-201.885 690.245,-195.09 712.98,-195.09L779.095,-195.09L779.095,-155.892L710.628,-155.892C688.938,-155.892 680.837,-148.313 680.837,-125.839C680.837,-102.059 690.245,-95.265 712.98,-95.265L779.095,-95.265ZM781.708,-355.021C781.708,-326.798 768.642,-309.812 746.691,-309.812C727.353,-309.812 715.332,-324.184 712.457,-352.146L706.708,-408.331L701.743,-408.331C684.757,-408.331 680.053,-400.752 680.053,-379.846C680.053,-359.986 685.28,-351.885 700.175,-351.885L701.22,-351.885L701.22,-312.425L700.436,-312.425C668.032,-312.425 645.558,-339.602 645.558,-382.721C645.558,-426.362 668.032,-447.007 702.266,-447.007L779.095,-447.007L779.095,-410.421L749.043,-410.421L749.043,-408.331C769.426,-402.32 781.708,-384.028 781.708,-355.021ZM744.077,-349.271C751.133,-349.271 754.008,-354.759 754.008,-366.257C754.008,-392.913 747.736,-407.285 729.182,-408.331L734.408,-362.86C735.192,-353.453 737.806,-349.271 744.077,-349.271ZM779.095,-506.066L779.095,-466.867L648.172,-466.867L648.172,-503.191L688.415,-503.191L688.415,-505.543C666.464,-508.94 645.558,-524.62 645.558,-558.853C645.558,-594.655 668.555,-611.641 697.562,-611.641L779.095,-611.641L779.095,-572.442L710.628,-572.442C689.722,-572.442 680.837,-563.818 680.837,-539.777C680.837,-514.951 690.767,-506.066 712.98,-506.066L779.095,-506.066ZM634.844,-670.7L634.844,-631.501L604.008,-631.501L604.008,-670.7L634.844,-670.7ZM779.095,-670.7L779.095,-631.501L648.172,-631.501L648.172,-670.7L779.095,-670.7ZM781.708,-731.588C781.708,-703.365 768.642,-686.379 746.691,-686.379C727.353,-686.379 715.332,-700.752 712.457,-728.714L706.708,-784.899L701.743,-784.899C684.757,-784.899 680.053,-777.32 680.053,-756.414C680.053,-736.554 685.28,-728.453 700.175,-728.453L701.22,-728.453L701.22,-688.993L700.436,-688.993C668.032,-688.993 645.558,-716.17 645.558,-759.289C645.558,-802.93 668.032,-823.575 702.266,-823.575L779.095,-823.575L779.095,-786.989L749.043,-786.989L749.043,-784.899C769.426,-778.888 781.708,-760.595 781.708,-731.588ZM744.077,-725.839C751.133,-725.839 754.008,-731.327 754.008,-742.825C754.008,-769.48 747.736,-783.853 729.182,-784.899L734.408,-739.428C735.192,-730.021 737.806,-725.839 744.077,-725.839ZM779.095,-882.634L779.095,-843.435L648.172,-843.435L648.172,-879.759L688.415,-879.759L688.415,-882.111C666.464,-885.508 645.558,-901.188 645.558,-935.421C645.558,-971.223 668.555,-988.209 697.562,-988.209L779.095,-988.209L779.095,-949.01L710.628,-949.01C689.722,-949.01 680.837,-940.386 680.837,-916.345C680.837,-891.519 690.767,-882.634 712.98,-882.634L779.095,-882.634ZM779.095,-1087.51L779.095,-1048.31L604.008,-1048.31L604.008,-1196.48L639.287,-1196.48L639.287,-1087.51L678.746,-1087.51L678.746,-1192.56L713.764,-1192.56L713.764,-1087.51L779.095,-1087.51ZM781.708,-1282.72C781.708,-1239.08 760.28,-1209.29 713.764,-1209.29C671.952,-1209.29 645.558,-1238.82 645.558,-1281.94C645.558,-1324.79 668.032,-1353.28 709.06,-1353.28C713.764,-1353.28 717.161,-1352.76 721.604,-1352.23L721.604,-1245.61C741.726,-1246.66 750.349,-1256.07 750.349,-1281.41C750.349,-1304.67 744.339,-1312.77 733.102,-1312.77L730.489,-1312.77L730.489,-1351.97L733.363,-1351.97C761.847,-1351.97 781.708,-1324.27 781.708,-1282.72ZM676.133,-1281.15C676.133,-1257.89 683.973,-1247.96 700.959,-1246.13L700.959,-1315.65C683.712,-1314.6 676.133,-1304.15 676.133,-1281.15ZM781.708,-1428.54C781.708,-1387.77 755.053,-1365.3 713.764,-1365.3C671.952,-1365.3 645.558,-1387.51 645.558,-1426.45C645.558,-1457.55 660.976,-1473.49 682.928,-1477.93L682.928,-1480.28L604.008,-1480.28L604.008,-1519.48L779.095,-1519.48L779.095,-1482.89L742.771,-1482.89L742.771,-1480.8C768.642,-1475.84 781.708,-1458.59 781.708,-1428.54ZM713.764,-1405.02C737.544,-1405.02 745.907,-1416.78 745.907,-1441.87C745.907,-1466.69 737.283,-1480.28 714.548,-1480.28L712.457,-1480.28C689.722,-1480.28 681.36,-1466.95 681.36,-1441.87C681.36,-1416.78 689.722,-1405.02 713.764,-1405.02ZM781.708,-1609.64C781.708,-1566 760.28,-1536.2 713.764,-1536.2C671.952,-1536.2 645.558,-1565.74 645.558,-1608.85C645.558,-1651.71 668.032,-1680.19 709.06,-1680.19C713.764,-1680.19 717.161,-1679.67 721.604,-1679.15L721.604,-1572.53C741.726,-1573.57 750.349,-1582.98 750.349,-1608.33C750.349,-1631.59 744.339,-1639.69 733.102,-1639.69L730.489,-1639.69L730.489,-1678.89L733.363,-1678.89C761.847,-1678.89 781.708,-1651.19 781.708,-1609.64ZM676.133,-1608.07C676.133,-1584.81 683.973,-1574.88 700.959,-1573.05L700.959,-1642.56C683.712,-1641.52 676.133,-1631.07 676.133,-1608.07ZM779.095,-1736.12L779.095,-1696.92L648.172,-1696.92L648.172,-1733.24L682.928,-1733.24L682.928,-1735.6C661.76,-1739.25 645.558,-1753.1 645.558,-1779.5C645.558,-1808.77 665.68,-1820.79 691.29,-1820.79L712.98,-1820.79L712.98,-1781.59L699.391,-1781.59C685.018,-1781.59 678.746,-1775.84 678.746,-1759.9C678.746,-1742.39 686.847,-1736.12 703.311,-1736.12L779.095,-1736.12ZM781.708,-1875.14C781.708,-1846.92 768.642,-1829.93 746.691,-1829.93C727.353,-1829.93 715.332,-1844.31 712.457,-1872.27L706.708,-1928.45L701.743,-1928.45C684.757,-1928.45 680.053,-1920.87 680.053,-1899.97C680.053,-1880.11 685.28,-1872.01 700.175,-1872.01L701.22,-1872.01L701.22,-1832.55L700.436,-1832.55C668.032,-1832.55 645.558,-1859.72 645.558,-1902.84C645.558,-1946.48 668.032,-1967.13 702.266,-1967.13L779.095,-1967.13L779.095,-1930.54L749.043,-1930.54L749.043,-1928.45C769.426,-1922.44 781.708,-1904.15 781.708,-1875.14ZM744.077,-1869.39C751.133,-1869.39 754.008,-1874.88 754.008,-1886.38C754.008,-1913.03 747.736,-1927.41 729.182,-1928.45L734.408,-1882.98C735.192,-1873.57 737.806,-1869.39 744.077,-1869.39ZM779.095,-2079.24L779.095,-2046.83C779.095,-2016.26 764.722,-1997.7 731.795,-1997.7L680.576,-1997.7L680.576,-1977.06L648.172,-1977.06L648.172,-1997.7L622.823,-1997.7L622.823,-2036.9L648.172,-2036.9L648.172,-2079.24L680.576,-2079.24L680.576,-2036.9L727.353,-2036.9C740.419,-2036.9 743.816,-2041.87 743.816,-2055.72L743.816,-2079.24L779.095,-2079.24ZM634.844,-2133.07L634.844,-2093.87L604.008,-2093.87L604.008,-2133.07L634.844,-2133.07ZM779.095,-2133.07L779.095,-2093.87L648.172,-2093.87L648.172,-2133.07L779.095,-2133.07ZM781.708,-2223.49C781.708,-2178.8 755.053,-2148.75 713.764,-2148.75C671.952,-2148.75 645.558,-2178.8 645.558,-2223.49C645.558,-2268.17 671.952,-2298.23 713.764,-2298.23C755.053,-2298.23 781.708,-2268.17 781.708,-2223.49ZM746.952,-2223.49C746.952,-2249.88 736.76,-2259.29 713.764,-2259.29C690.767,-2259.29 680.053,-2249.88 680.053,-2223.49C680.053,-2196.83 690.767,-2187.69 713.764,-2187.69C736.76,-2187.69 746.952,-2196.83 746.952,-2223.49ZM779.095,-2353.37L779.095,-2314.17L648.172,-2314.17L648.172,-2350.49L688.415,-2350.49L688.415,-2352.84C666.464,-2356.24 645.558,-2371.92 645.558,-2406.15C645.558,-2441.95 668.555,-2458.94 697.562,-2458.94L779.095,-2458.94L779.095,-2419.74L710.628,-2419.74C689.722,-2419.74 680.837,-2411.12 680.837,-2387.08C680.837,-2362.25 690.767,-2353.37 712.98,-2353.37L779.095,-2353.37ZM980.909,215.45C980.909,260.136 954.254,290.188 912.965,290.188C871.153,290.188 844.759,260.136 844.759,215.45C844.759,170.763 871.153,140.711 912.965,140.711C954.254,140.711 980.909,170.763 980.909,215.45ZM946.153,215.45C946.153,189.056 935.961,179.648 912.965,179.648C889.968,179.648 879.254,189.056 879.254,215.45C879.254,242.105 889.968,251.251 912.965,251.251C935.961,251.251 946.153,242.105 946.153,215.45ZM978.296,75.119L978.296,114.317L879.777,114.317L879.777,132.871L847.372,132.871L847.372,113.533C820.979,109.352 803.209,86.356 803.209,46.112L803.209,34.614L831.693,34.614L831.693,52.384C831.693,69.631 834.568,77.732 847.372,76.687L847.372,34.614L879.777,34.614L879.777,75.119L978.296,75.119ZM978.296,-57.895L978.296,-18.697L803.209,-18.697L803.209,-71.745L889.446,-112.773L930.473,-129.237L930.473,-132.111L889.446,-148.052L803.209,-187.773L803.209,-241.083L978.296,-241.083L978.296,-201.885L889.446,-201.885L862.007,-203.191L862.007,-200.317L889.446,-190.125L967.843,-153.54L967.843,-105.979L889.446,-69.393L862.007,-59.202L862.007,-56.327L889.446,-57.895L978.296,-57.895ZM834.045,-300.926L834.045,-261.728L803.209,-261.728L803.209,-300.926L834.045,-300.926ZM978.296,-300.926L978.296,-261.728L847.372,-261.728L847.372,-300.926L978.296,-300.926ZM978.296,-360.77L978.296,-321.571L847.372,-321.571L847.372,-357.895L887.616,-357.895L887.616,-360.247C865.665,-363.644 844.759,-379.324 844.759,-413.557C844.759,-449.359 867.756,-466.345 896.763,-466.345L978.296,-466.345L978.296,-427.146L909.829,-427.146C888.923,-427.146 880.038,-418.522 880.038,-394.48C880.038,-369.655 889.968,-360.77 912.181,-360.77L978.296,-360.77ZM980.909,-555.717C980.909,-512.076 959.48,-482.285 912.965,-482.285C871.153,-482.285 844.759,-511.815 844.759,-554.933C844.759,-597.791 867.233,-626.275 908.261,-626.275C912.965,-626.275 916.362,-625.752 920.804,-625.23L920.804,-518.609C940.926,-519.655 949.55,-529.062 949.55,-554.411C949.55,-577.669 943.54,-585.77 932.303,-585.77L929.689,-585.77L929.689,-624.968L932.564,-624.968C961.048,-624.968 980.909,-597.268 980.909,-555.717ZM875.334,-554.149C875.334,-530.892 883.174,-520.961 900.16,-519.132L900.16,-588.644C882.912,-587.599 875.334,-577.146 875.334,-554.149ZM980.909,-712.773C980.909,-667.825 954.254,-639.08 912.965,-639.08C871.153,-639.08 844.759,-667.825 844.759,-712.773C844.759,-754.846 867.233,-783.592 901.205,-783.592L904.864,-783.592L904.864,-744.655L902.773,-744.655C886.048,-744.655 880.038,-732.372 880.038,-711.989C880.038,-688.731 888.662,-678.017 912.965,-678.017C937.007,-678.017 945.63,-688.731 945.63,-711.989C945.63,-732.372 939.62,-744.655 922.895,-744.655L920.804,-744.655L920.804,-783.592L924.463,-783.592C958.174,-783.592 980.909,-754.846 980.909,-712.773ZM978.296,-839.777L978.296,-800.578L847.372,-800.578L847.372,-836.902L882.129,-836.902L882.129,-839.254C860.961,-842.912 844.759,-856.763 844.759,-883.156C844.759,-912.425 864.881,-924.446 890.491,-924.446L912.181,-924.446L912.181,-885.247L898.592,-885.247C884.219,-885.247 877.947,-879.498 877.947,-863.557C877.947,-846.048 886.048,-839.777 902.512,-839.777L978.296,-839.777ZM980.909,-978.801C980.909,-950.578 967.843,-933.592 945.892,-933.592C926.554,-933.592 914.533,-947.965 911.658,-975.926L905.909,-1032.11L900.944,-1032.11C883.958,-1032.11 879.254,-1024.53 879.254,-1003.63C879.254,-983.766 884.48,-975.665 899.376,-975.665L900.421,-975.665L900.421,-936.205L899.637,-936.205C867.233,-936.205 844.759,-963.383 844.759,-1006.5C844.759,-1050.14 867.233,-1070.79 901.466,-1070.79L978.296,-1070.79L978.296,-1034.2L948.243,-1034.2L948.243,-1032.11C968.627,-1026.1 980.909,-1007.81 980.909,-978.801ZM943.278,-973.052C950.334,-973.052 953.209,-978.54 953.209,-990.038C953.209,-1016.69 946.937,-1031.07 928.383,-1032.11L933.609,-986.641C934.393,-977.233 937.007,-973.052 943.278,-973.052ZM978.296,-1140.3L978.296,-1101.1L879.777,-1101.1L879.777,-1082.55L847.372,-1082.55L847.372,-1101.88C820.979,-1106.07 803.209,-1129.06 803.209,-1169.31L803.209,-1180.8L831.693,-1180.8L831.693,-1163.03C831.693,-1145.79 834.568,-1137.69 847.372,-1138.73L847.372,-1193.87L822.024,-1193.87L822.024,-1233.07L847.372,-1233.07L847.372,-1275.14L879.777,-1275.14L879.777,-1233.07L926.554,-1233.07C939.62,-1233.07 943.017,-1238.03 943.017,-1251.62L943.017,-1275.14L978.296,-1275.14L978.296,-1243C978.296,-1212.42 963.923,-1193.87 930.996,-1193.87L879.777,-1193.87L879.777,-1140.3L978.296,-1140.3Z" style="fill:white;"/>
            <clipPath id="_clip1">
                <path d="M626.333,399.388C703.271,399.388 765.736,461.853 765.736,538.791C765.736,615.73 703.271,678.195 626.333,678.195C549.394,678.195 486.929,615.73 486.929,538.791C486.929,461.853 549.394,399.388 626.333,399.388ZM790.919,678.195C867.858,678.195 930.322,740.659 930.322,817.598C930.322,894.536 867.858,957.001 790.919,957.001C713.981,957.001 651.516,894.536 651.516,817.598C651.516,740.659 713.981,678.195 790.919,678.195ZM955.506,399.388C1032.44,399.388 1094.91,461.853 1094.91,538.791C1094.91,615.73 1032.44,678.195 955.506,678.195C878.567,678.195 816.103,615.73 816.103,538.791C816.103,461.853 878.567,399.388 955.506,399.388ZM779.095,246.025L779.095,285.223L604.008,285.223L604.008,188.533C604.008,145.415 623.084,120.85 656.534,120.85C685.018,120.85 702.004,137.314 705.14,170.241L707.231,170.241C711.412,154.561 719.774,148.551 732.057,142.018L779.095,116.669L779.095,162.14L733.624,186.181C720.036,193.237 715.593,199.77 715.593,220.154L715.593,246.025L779.095,246.025ZM639.287,246.025L686.063,246.025L686.063,188.795C686.063,170.241 680.837,161.878 662.544,161.878C645.297,161.878 639.287,170.241 639.287,188.795L639.287,246.025ZM781.708,34.614C781.708,79.3 755.053,109.352 713.764,109.352C671.952,109.352 645.558,79.3 645.558,34.614C645.558,-10.073 671.952,-40.125 713.764,-40.125C755.053,-40.125 781.708,-10.073 781.708,34.614ZM746.952,34.614C746.952,8.22 736.76,-1.188 713.764,-1.188C690.767,-1.188 680.053,8.22 680.053,34.614C680.053,61.269 690.767,70.415 713.764,70.415C736.76,70.415 746.952,61.269 746.952,34.614ZM779.095,-95.265L779.095,-56.066L648.172,-56.066L648.172,-92.39L687.893,-92.39L687.893,-94.481C665.942,-97.616 645.558,-110.683 645.558,-143.609C645.558,-173.923 664.112,-189.341 688.415,-192.216L688.415,-194.568C666.203,-197.704 645.558,-211.031 645.558,-244.742C645.558,-278.453 667.771,-294.916 697.562,-294.916L779.095,-294.916L779.095,-255.717L710.628,-255.717C688.938,-255.717 680.837,-248.139 680.837,-225.665C680.837,-201.885 690.245,-195.09 712.98,-195.09L779.095,-195.09L779.095,-155.892L710.628,-155.892C688.938,-155.892 680.837,-148.313 680.837,-125.839C680.837,-102.059 690.245,-95.265 712.98,-95.265L779.095,-95.265ZM781.708,-355.021C781.708,-326.798 768.642,-309.812 746.691,-309.812C727.353,-309.812 715.332,-324.184 712.457,-352.146L706.708,-408.331L701.743,-408.331C684.757,-408.331 680.053,-400.752 680.053,-379.846C680.053,-359.986 685.28,-351.885 700.175,-351.885L701.22,-351.885L701.22,-312.425L700.436,-312.425C668.032,-312.425 645.558,-339.602 645.558,-382.721C645.558,-426.362 668.032,-447.007 702.266,-447.007L779.095,-447.007L779.095,-410.421L749.043,-410.421L749.043,-408.331C769.426,-402.32 781.708,-384.028 781.708,-355.021ZM744.077,-349.271C751.133,-349.271 754.008,-354.759 754.008,-366.257C754.008,-392.913 747.736,-407.285 729.182,-408.331L734.408,-362.86C735.192,-353.453 737.806,-349.271 744.077,-349.271ZM779.095,-506.066L779.095,-466.867L648.172,-466.867L648.172,-503.191L688.415,-503.191L688.415,-505.543C666.464,-508.94 645.558,-524.62 645.558,-558.853C645.558,-594.655 668.555,-611.641 697.562,-611.641L779.095,-611.641L779.095,-572.442L710.628,-572.442C689.722,-572.442 680.837,-563.818 680.837,-539.777C680.837,-514.951 690.767,-506.066 712.98,-506.066L779.095,-506.066ZM634.844,-670.7L634.844,-631.501L604.008,-631.501L604.008,-670.7L634.844,-670.7ZM779.095,-670.7L779.095,-631.501L648.172,-631.501L648.172,-670.7L779.095,-670.7ZM781.708,-731.588C781.708,-703.365 768.642,-686.379 746.691,-686.379C727.353,-686.379 715.332,-700.752 712.457,-728.714L706.708,-784.899L701.743,-784.899C684.757,-784.899 680.053,-777.32 680.053,-756.414C680.053,-736.554 685.28,-728.453 700.175,-728.453L701.22,-728.453L701.22,-688.993L700.436,-688.993C668.032,-688.993 645.558,-716.17 645.558,-759.289C645.558,-802.93 668.032,-823.575 702.266,-823.575L779.095,-823.575L779.095,-786.989L749.043,-786.989L749.043,-784.899C769.426,-778.888 781.708,-760.595 781.708,-731.588ZM744.077,-725.839C751.133,-725.839 754.008,-731.327 754.008,-742.825C754.008,-769.48 747.736,-783.853 729.182,-784.899L734.408,-739.428C735.192,-730.021 737.806,-725.839 744.077,-725.839ZM779.095,-882.634L779.095,-843.435L648.172,-843.435L648.172,-879.759L688.415,-879.759L688.415,-882.111C666.464,-885.508 645.558,-901.188 645.558,-935.421C645.558,-971.223 668.555,-988.209 697.562,-988.209L779.095,-988.209L779.095,-949.01L710.628,-949.01C689.722,-949.01 680.837,-940.386 680.837,-916.345C680.837,-891.519 690.767,-882.634 712.98,-882.634L779.095,-882.634ZM779.095,-1087.51L779.095,-1048.31L604.008,-1048.31L604.008,-1196.48L639.287,-1196.48L639.287,-1087.51L678.746,-1087.51L678.746,-1192.56L713.764,-1192.56L713.764,-1087.51L779.095,-1087.51ZM781.708,-1282.72C781.708,-1239.08 760.28,-1209.29 713.764,-1209.29C671.952,-1209.29 645.558,-1238.82 645.558,-1281.94C645.558,-1324.79 668.032,-1353.28 709.06,-1353.28C713.764,-1353.28 717.161,-1352.76 721.604,-1352.23L721.604,-1245.61C741.726,-1246.66 750.349,-1256.07 750.349,-1281.41C750.349,-1304.67 744.339,-1312.77 733.102,-1312.77L730.489,-1312.77L730.489,-1351.97L733.363,-1351.97C761.847,-1351.97 781.708,-1324.27 781.708,-1282.72ZM676.133,-1281.15C676.133,-1257.89 683.973,-1247.96 700.959,-1246.13L700.959,-1315.65C683.712,-1314.6 676.133,-1304.15 676.133,-1281.15ZM781.708,-1428.54C781.708,-1387.77 755.053,-1365.3 713.764,-1365.3C671.952,-1365.3 645.558,-1387.51 645.558,-1426.45C645.558,-1457.55 660.976,-1473.49 682.928,-1477.93L682.928,-1480.28L604.008,-1480.28L604.008,-1519.48L779.095,-1519.48L779.095,-1482.89L742.771,-1482.89L742.771,-1480.8C768.642,-1475.84 781.708,-1458.59 781.708,-1428.54ZM713.764,-1405.02C737.544,-1405.02 745.907,-1416.78 745.907,-1441.87C745.907,-1466.69 737.283,-1480.28 714.548,-1480.28L712.457,-1480.28C689.722,-1480.28 681.36,-1466.95 681.36,-1441.87C681.36,-1416.78 689.722,-1405.02 713.764,-1405.02ZM781.708,-1609.64C781.708,-1566 760.28,-1536.2 713.764,-1536.2C671.952,-1536.2 645.558,-1565.74 645.558,-1608.85C645.558,-1651.71 668.032,-1680.19 709.06,-1680.19C713.764,-1680.19 717.161,-1679.67 721.604,-1679.15L721.604,-1572.53C741.726,-1573.57 750.349,-1582.98 750.349,-1608.33C750.349,-1631.59 744.339,-1639.69 733.102,-1639.69L730.489,-1639.69L730.489,-1678.89L733.363,-1678.89C761.847,-1678.89 781.708,-1651.19 781.708,-1609.64ZM676.133,-1608.07C676.133,-1584.81 683.973,-1574.88 700.959,-1573.05L700.959,-1642.56C683.712,-1641.52 676.133,-1631.07 676.133,-1608.07ZM779.095,-1736.12L779.095,-1696.92L648.172,-1696.92L648.172,-1733.24L682.928,-1733.24L682.928,-1735.6C661.76,-1739.25 645.558,-1753.1 645.558,-1779.5C645.558,-1808.77 665.68,-1820.79 691.29,-1820.79L712.98,-1820.79L712.98,-1781.59L699.391,-1781.59C685.018,-1781.59 678.746,-1775.84 678.746,-1759.9C678.746,-1742.39 686.847,-1736.12 703.311,-1736.12L779.095,-1736.12ZM781.708,-1875.14C781.708,-1846.92 768.642,-1829.93 746.691,-1829.93C727.353,-1829.93 715.332,-1844.31 712.457,-1872.27L706.708,-1928.45L701.743,-1928.45C684.757,-1928.45 680.053,-1920.87 680.053,-1899.97C680.053,-1880.11 685.28,-1872.01 700.175,-1872.01L701.22,-1872.01L701.22,-1832.55L700.436,-1832.55C668.032,-1832.55 645.558,-1859.72 645.558,-1902.84C645.558,-1946.48 668.032,-1967.13 702.266,-1967.13L779.095,-1967.13L779.095,-1930.54L749.043,-1930.54L749.043,-1928.45C769.426,-1922.44 781.708,-1904.15 781.708,-1875.14ZM744.077,-1869.39C751.133,-1869.39 754.008,-1874.88 754.008,-1886.38C754.008,-1913.03 747.736,-1927.41 729.182,-1928.45L734.408,-1882.98C735.192,-1873.57 737.806,-1869.39 744.077,-1869.39ZM779.095,-2079.24L779.095,-2046.83C779.095,-2016.26 764.722,-1997.7 731.795,-1997.7L680.576,-1997.7L680.576,-1977.06L648.172,-1977.06L648.172,-1997.7L622.823,-1997.7L622.823,-2036.9L648.172,-2036.9L648.172,-2079.24L680.576,-2079.24L680.576,-2036.9L727.353,-2036.9C740.419,-2036.9 743.816,-2041.87 743.816,-2055.72L743.816,-2079.24L779.095,-2079.24ZM634.844,-2133.07L634.844,-2093.87L604.008,-2093.87L604.008,-2133.07L634.844,-2133.07ZM779.095,-2133.07L779.095,-2093.87L648.172,-2093.87L648.172,-2133.07L779.095,-2133.07ZM781.708,-2223.49C781.708,-2178.8 755.053,-2148.75 713.764,-2148.75C671.952,-2148.75 645.558,-2178.8 645.558,-2223.49C645.558,-2268.17 671.952,-2298.23 713.764,-2298.23C755.053,-2298.23 781.708,-2268.17 781.708,-2223.49ZM746.952,-2223.49C746.952,-2249.88 736.76,-2259.29 713.764,-2259.29C690.767,-2259.29 680.053,-2249.88 680.053,-2223.49C680.053,-2196.83 690.767,-2187.69 713.764,-2187.69C736.76,-2187.69 746.952,-2196.83 746.952,-2223.49ZM779.095,-2353.37L779.095,-2314.17L648.172,-2314.17L648.172,-2350.49L688.415,-2350.49L688.415,-2352.84C666.464,-2356.24 645.558,-2371.92 645.558,-2406.15C645.558,-2441.95 668.555,-2458.94 697.562,-2458.94L779.095,-2458.94L779.095,-2419.74L710.628,-2419.74C689.722,-2419.74 680.837,-2411.12 680.837,-2387.08C680.837,-2362.25 690.767,-2353.37 712.98,-2353.37L779.095,-2353.37ZM980.909,215.45C980.909,260.136 954.254,290.188 912.965,290.188C871.153,290.188 844.759,260.136 844.759,215.45C844.759,170.763 871.153,140.711 912.965,140.711C954.254,140.711 980.909,170.763 980.909,215.45ZM946.153,215.45C946.153,189.056 935.961,179.648 912.965,179.648C889.968,179.648 879.254,189.056 879.254,215.45C879.254,242.105 889.968,251.251 912.965,251.251C935.961,251.251 946.153,242.105 946.153,215.45ZM978.296,75.119L978.296,114.317L879.777,114.317L879.777,132.871L847.372,132.871L847.372,113.533C820.979,109.352 803.209,86.356 803.209,46.112L803.209,34.614L831.693,34.614L831.693,52.384C831.693,69.631 834.568,77.732 847.372,76.687L847.372,34.614L879.777,34.614L879.777,75.119L978.296,75.119ZM978.296,-57.895L978.296,-18.697L803.209,-18.697L803.209,-71.745L889.446,-112.773L930.473,-129.237L930.473,-132.111L889.446,-148.052L803.209,-187.773L803.209,-241.083L978.296,-241.083L978.296,-201.885L889.446,-201.885L862.007,-203.191L862.007,-200.317L889.446,-190.125L967.843,-153.54L967.843,-105.979L889.446,-69.393L862.007,-59.202L862.007,-56.327L889.446,-57.895L978.296,-57.895ZM834.045,-300.926L834.045,-261.728L803.209,-261.728L803.209,-300.926L834.045,-300.926ZM978.296,-300.926L978.296,-261.728L847.372,-261.728L847.372,-300.926L978.296,-300.926ZM978.296,-360.77L978.296,-321.571L847.372,-321.571L847.372,-357.895L887.616,-357.895L887.616,-360.247C865.665,-363.644 844.759,-379.324 844.759,-413.557C844.759,-449.359 867.756,-466.345 896.763,-466.345L978.296,-466.345L978.296,-427.146L909.829,-427.146C888.923,-427.146 880.038,-418.522 880.038,-394.48C880.038,-369.655 889.968,-360.77 912.181,-360.77L978.296,-360.77ZM980.909,-555.717C980.909,-512.076 959.48,-482.285 912.965,-482.285C871.153,-482.285 844.759,-511.815 844.759,-554.933C844.759,-597.791 867.233,-626.275 908.261,-626.275C912.965,-626.275 916.362,-625.752 920.804,-625.23L920.804,-518.609C940.926,-519.655 949.55,-529.062 949.55,-554.411C949.55,-577.669 943.54,-585.77 932.303,-585.77L929.689,-585.77L929.689,-624.968L932.564,-624.968C961.048,-624.968 980.909,-597.268 980.909,-555.717ZM875.334,-554.149C875.334,-530.892 883.174,-520.961 900.16,-519.132L900.16,-588.644C882.912,-587.599 875.334,-577.146 875.334,-554.149ZM980.909,-712.773C980.909,-667.825 954.254,-639.08 912.965,-639.08C871.153,-639.08 844.759,-667.825 844.759,-712.773C844.759,-754.846 867.233,-783.592 901.205,-783.592L904.864,-783.592L904.864,-744.655L902.773,-744.655C886.048,-744.655 880.038,-732.372 880.038,-711.989C880.038,-688.731 888.662,-678.017 912.965,-678.017C937.007,-678.017 945.63,-688.731 945.63,-711.989C945.63,-732.372 939.62,-744.655 922.895,-744.655L920.804,-744.655L920.804,-783.592L924.463,-783.592C958.174,-783.592 980.909,-754.846 980.909,-712.773ZM978.296,-839.777L978.296,-800.578L847.372,-800.578L847.372,-836.902L882.129,-836.902L882.129,-839.254C860.961,-842.912 844.759,-856.763 844.759,-883.156C844.759,-912.425 864.881,-924.446 890.491,-924.446L912.181,-924.446L912.181,-885.247L898.592,-885.247C884.219,-885.247 877.947,-879.498 877.947,-863.557C877.947,-846.048 886.048,-839.777 902.512,-839.777L978.296,-839.777ZM980.909,-978.801C980.909,-950.578 967.843,-933.592 945.892,-933.592C926.554,-933.592 914.533,-947.965 911.658,-975.926L905.909,-1032.11L900.944,-1032.11C883.958,-1032.11 879.254,-1024.53 879.254,-1003.63C879.254,-983.766 884.48,-975.665 899.376,-975.665L900.421,-975.665L900.421,-936.205L899.637,-936.205C867.233,-936.205 844.759,-963.383 844.759,-1006.5C844.759,-1050.14 867.233,-1070.79 901.466,-1070.79L978.296,-1070.79L978.296,-1034.2L948.243,-1034.2L948.243,-1032.11C968.627,-1026.1 980.909,-1007.81 980.909,-978.801ZM943.278,-973.052C950.334,-973.052 953.209,-978.54 953.209,-990.038C953.209,-1016.69 946.937,-1031.07 928.383,-1032.11L933.609,-986.641C934.393,-977.233 937.007,-973.052 943.278,-973.052ZM978.296,-1140.3L978.296,-1101.1L879.777,-1101.1L879.777,-1082.55L847.372,-1082.55L847.372,-1101.88C820.979,-1106.07 803.209,-1129.06 803.209,-1169.31L803.209,-1180.8L831.693,-1180.8L831.693,-1163.03C831.693,-1145.79 834.568,-1137.69 847.372,-1138.73L847.372,-1193.87L822.024,-1193.87L822.024,-1233.07L847.372,-1233.07L847.372,-1275.14L879.777,-1275.14L879.777,-1233.07L926.554,-1233.07C939.62,-1233.07 943.017,-1238.03 943.017,-1251.62L943.017,-1275.14L978.296,-1275.14L978.296,-1243C978.296,-1212.42 963.923,-1193.87 930.996,-1193.87L879.777,-1193.87L879.777,-1140.3L978.296,-1140.3Z"/>
            </clipPath>
            <g clip-path="url(#_clip1)">
                <g transform="matrix(1.76776e-16,-2.88697,2.88697,1.76776e-16,-768.044,2130.77)">
                    <path d="M599.723,482.99C599.723,509.64 578.087,531.277 551.436,531.277C524.786,531.277 503.149,509.64 503.149,482.99C503.149,456.339 524.786,434.703 551.436,434.703C578.087,434.703 599.723,456.339 599.723,482.99Z" style="fill:rgb(0,43,127);"/>
                </g>
                <g transform="matrix(1.76776e-16,-2.88697,2.88697,1.76776e-16,-768.044,2130.77)">
                    <path d="M503.149,540C503.149,566.65 481.513,588.287 454.862,588.287C428.212,588.287 406.575,566.65 406.575,540C406.575,513.35 428.212,491.713 454.862,491.713C481.513,491.713 503.149,513.35 503.149,540Z" style="fill:rgb(252,209,22);"/>
                </g>
                <g transform="matrix(1.76776e-16,-2.88697,2.88697,1.76776e-16,-768.044,2130.77)">
                    <path d="M599.723,597.01C599.723,623.661 578.087,645.297 551.436,645.297C524.786,645.297 503.149,623.661 503.149,597.01C503.149,570.36 524.786,548.723 551.436,548.723C578.087,548.723 599.723,570.36 599.723,597.01Z" style="fill:rgb(206,17,38);"/>
                </g>
            </g>
        </g>
    </g>
</svg>
