<svg width="483" height="146" viewBox="0 0 483 146" fill="none" xmlns="http://www.w3.org/2000/svg">
<g clip-path="url(#clip0_9_80)">
<rect width="146" height="146" rx="73" fill="white"/>
<rect width="232.8" height="65.475" transform="matrix(1 0 0 -1 0 145.5)" fill="#FFAA7A"/>
<rect width="232.8" height="65.475" transform="matrix(1 0 0 -1 0 65.475)" fill="#88BB8A"/>
<path d="M72.8614 108.501L67.7172 103.357L44.274 79.9135C41.5082 77.1477 39.5786 73.821 38.623 70.0218L38.6179 70.0014L38.6129 69.981C37.7236 66.3572 37.7299 62.6839 38.6497 59.0683C39.6083 55.2847 41.5373 51.9753 44.3157 49.2421L72.8614 108.501ZM72.8614 108.501L78.0056 103.357M72.8614 108.501L78.0056 103.357M78.0056 103.357L101.449 79.9135C104.218 77.1443 106.144 73.8101 107.082 70.0009C107.991 66.3741 107.995 62.6937 107.073 59.0698M78.0056 103.357L107.073 59.0698M72.8654 47.4982C70.5498 45.702 67.9305 44.399 65.0384 43.6618C61.4242 42.7366 57.7528 42.7385 54.1374 43.6566C50.3717 44.601 47.0778 46.5244 44.3167 49.241L72.8654 47.4982ZM72.8654 47.4982C75.1804 45.7074 77.7937 44.4025 80.679 43.6631C84.2878 42.7384 87.9537 42.7362 91.5628 43.6566C95.3359 44.5991 98.6392 46.5188 101.406 49.241L72.8654 47.4982ZM107.073 59.0698C106.115 55.2856 104.186 51.9756 101.407 49.242L107.073 59.0698Z" fill="#FFA6EB" stroke="white" stroke-width="14.55"/>
</g>
<path d="M181.428 51.7V34.2454H187.325C188.689 34.2454 189.808 34.4784 190.683 34.9443C191.558 35.4045 192.206 36.038 192.627 36.8448C193.047 37.6517 193.257 38.5693 193.257 39.5977C193.257 40.6261 193.047 41.538 192.627 42.3335C192.206 43.1289 191.561 43.7539 190.692 44.2085C189.823 44.6573 188.712 44.8818 187.36 44.8818H182.587V42.9727H187.291C188.223 42.9727 188.973 42.8363 189.541 42.5636C190.115 42.2909 190.53 41.9045 190.786 41.4045C191.047 40.8988 191.178 40.2965 191.178 39.5977C191.178 38.8988 191.047 38.288 190.786 37.7653C190.524 37.2426 190.107 36.8392 189.533 36.5551C188.959 36.2653 188.2 36.1204 187.257 36.1204H183.541V51.7H181.428ZM189.644 43.859L193.939 51.7H191.485L187.257 43.859H189.644ZM201.855 51.9727C200.593 51.9727 199.505 51.6943 198.59 51.1375C197.681 50.575 196.98 49.7909 196.485 48.7852C195.997 47.7738 195.752 46.5977 195.752 45.2568C195.752 43.9159 195.997 42.734 196.485 41.7113C196.98 40.6829 197.667 39.8818 198.548 39.3079C199.434 38.7284 200.468 38.4386 201.65 38.4386C202.332 38.4386 203.005 38.5522 203.67 38.7795C204.335 39.0068 204.94 39.3761 205.485 39.8875C206.031 40.3931 206.465 41.0636 206.789 41.8988C207.113 42.734 207.275 43.7625 207.275 44.984V45.8363H197.184V44.0977H205.23C205.23 43.359 205.082 42.7 204.786 42.1204C204.497 41.5409 204.082 41.0835 203.542 40.7482C203.008 40.413 202.377 40.2454 201.65 40.2454C200.849 40.2454 200.156 40.4443 199.57 40.842C198.991 41.234 198.545 41.7454 198.232 42.3761C197.92 43.0068 197.764 43.6829 197.764 44.4045V45.5636C197.764 46.5522 197.934 47.3903 198.275 48.0778C198.622 48.7596 199.102 49.2795 199.715 49.6375C200.329 49.9897 201.042 50.1659 201.855 50.1659C202.383 50.1659 202.86 50.092 203.286 49.9443C203.718 49.7909 204.09 49.5636 204.403 49.2625C204.715 48.9556 204.957 48.575 205.127 48.1204L207.07 48.6659C206.866 49.325 206.522 49.9045 206.039 50.4045C205.556 50.8988 204.96 51.2852 204.249 51.5636C203.539 51.8363 202.741 51.9727 201.855 51.9727ZM210.335 56.609V38.609H212.278V40.6886H212.516C212.664 40.4613 212.869 40.1715 213.13 39.8193C213.397 39.4613 213.778 39.1431 214.272 38.8647C214.772 38.5806 215.448 38.4386 216.301 38.4386C217.403 38.4386 218.374 38.7142 219.215 39.2653C220.056 39.8164 220.713 40.5977 221.184 41.609C221.656 42.6204 221.891 43.8136 221.891 45.1886C221.891 46.575 221.656 47.7767 221.184 48.7937C220.713 49.8051 220.059 50.5892 219.224 51.146C218.389 51.6971 217.426 51.9727 216.335 51.9727C215.494 51.9727 214.82 51.8335 214.315 51.5551C213.809 51.271 213.42 50.95 213.147 50.592C212.874 50.2284 212.664 49.9272 212.516 49.6886H212.346V56.609H210.335ZM212.312 45.1545C212.312 46.1431 212.457 47.0153 212.747 47.771C213.036 48.521 213.46 49.109 214.016 49.5352C214.573 49.9556 215.255 50.1659 216.062 50.1659C216.903 50.1659 217.605 49.9443 218.167 49.5011C218.735 49.0522 219.161 48.45 219.445 47.6943C219.735 46.9329 219.88 46.0863 219.88 45.1545C219.88 44.234 219.738 43.4045 219.454 42.6659C219.176 41.9215 218.752 41.3335 218.184 40.9017C217.622 40.4642 216.914 40.2454 216.062 40.2454C215.244 40.2454 214.556 40.4528 213.999 40.8676C213.443 41.2767 213.022 41.8505 212.738 42.5892C212.454 43.3221 212.312 44.1772 212.312 45.1545ZM233.21 46.3477V38.609H235.221V51.7H233.21V49.484H233.073C232.766 50.1488 232.289 50.7142 231.641 51.1801C230.994 51.6403 230.176 51.8704 229.187 51.8704C228.369 51.8704 227.641 51.6914 227.005 51.3335C226.369 50.9698 225.869 50.4244 225.505 49.6971C225.141 48.9642 224.96 48.0409 224.96 46.9272V38.609H226.971V46.7909C226.971 47.7454 227.238 48.5068 227.772 49.075C228.312 49.6431 228.999 49.9272 229.835 49.9272C230.335 49.9272 230.843 49.7994 231.36 49.5437C231.883 49.288 232.32 48.896 232.673 48.3676C233.031 47.8392 233.21 47.1659 233.21 46.3477ZM239.178 51.7V34.2454H241.189V40.6886H241.36C241.507 40.4613 241.712 40.1715 241.973 39.8193C242.24 39.4613 242.621 39.1431 243.115 38.8647C243.615 38.5806 244.291 38.4386 245.144 38.4386C246.246 38.4386 247.217 38.7142 248.058 39.2653C248.899 39.8164 249.556 40.5977 250.027 41.609C250.499 42.6204 250.735 43.8136 250.735 45.1886C250.735 46.575 250.499 47.7767 250.027 48.7937C249.556 49.8051 248.902 50.5892 248.067 51.146C247.232 51.6971 246.269 51.9727 245.178 51.9727C244.337 51.9727 243.663 51.8335 243.158 51.5551C242.652 51.271 242.263 50.95 241.99 50.592C241.717 50.2284 241.507 49.9272 241.36 49.6886H241.121V51.7H239.178ZM241.155 45.1545C241.155 46.1431 241.3 47.0153 241.59 47.771C241.879 48.521 242.303 49.109 242.86 49.5352C243.416 49.9556 244.098 50.1659 244.905 50.1659C245.746 50.1659 246.448 49.9443 247.01 49.5011C247.578 49.0522 248.004 48.45 248.288 47.6943C248.578 46.9329 248.723 46.0863 248.723 45.1545C248.723 44.234 248.581 43.4045 248.297 42.6659C248.019 41.9215 247.595 41.3335 247.027 40.9017C246.465 40.4642 245.757 40.2454 244.905 40.2454C244.087 40.2454 243.399 40.4528 242.842 40.8676C242.286 41.2767 241.865 41.8505 241.581 42.5892C241.297 43.3221 241.155 44.1772 241.155 45.1545ZM255.823 34.2454V51.7H253.811V34.2454H255.823ZM259.507 51.7V38.609H261.518V51.7H259.507ZM260.529 36.4272C260.137 36.4272 259.799 36.2937 259.515 36.0267C259.237 35.7596 259.097 35.4386 259.097 35.0636C259.097 34.6886 259.237 34.3676 259.515 34.1005C259.799 33.8335 260.137 33.7 260.529 33.7C260.921 33.7 261.257 33.8335 261.535 34.1005C261.819 34.3676 261.961 34.6886 261.961 35.0636C261.961 35.4386 261.819 35.7596 261.535 36.0267C261.257 36.2937 260.921 36.4272 260.529 36.4272ZM270.52 51.9727C269.293 51.9727 268.236 51.6829 267.35 51.1034C266.463 50.5238 265.781 49.7255 265.304 48.7085C264.827 47.6914 264.588 46.5295 264.588 45.2227C264.588 43.8931 264.833 42.7198 265.321 41.7028C265.815 40.6801 266.503 39.8818 267.384 39.3079C268.27 38.7284 269.304 38.4386 270.486 38.4386C271.406 38.4386 272.236 38.609 272.975 38.95C273.713 39.2909 274.318 39.7681 274.79 40.3818C275.262 40.9954 275.554 41.7113 275.668 42.5295H273.656C273.503 41.9329 273.162 41.4045 272.634 40.9443C272.111 40.4784 271.406 40.2454 270.52 40.2454C269.736 40.2454 269.048 40.45 268.458 40.859C267.872 41.2625 267.415 41.8335 267.085 42.5721C266.762 43.3051 266.6 44.1659 266.6 45.1545C266.6 46.1659 266.759 47.0465 267.077 47.7965C267.401 48.5465 267.855 49.1289 268.44 49.5437C269.031 49.9585 269.725 50.1659 270.52 50.1659C271.043 50.1659 271.517 50.075 271.943 49.8931C272.369 49.7113 272.73 49.45 273.026 49.109C273.321 48.7681 273.531 48.359 273.656 47.8818H275.668C275.554 48.6545 275.273 49.3505 274.824 49.9698C274.381 50.5835 273.793 51.0721 273.06 51.4357C272.333 51.7937 271.486 51.9727 270.52 51.9727ZM290.676 51.9727C289.494 51.9727 288.458 51.6914 287.565 51.1289C286.679 50.5664 285.986 49.7795 285.486 48.7681C284.992 47.7568 284.744 46.575 284.744 45.2227C284.744 43.859 284.992 42.6687 285.486 41.6517C285.986 40.6346 286.679 39.8448 287.565 39.2823C288.458 38.7198 289.494 38.4386 290.676 38.4386C291.858 38.4386 292.892 38.7198 293.779 39.2823C294.671 39.8448 295.364 40.6346 295.858 41.6517C296.358 42.6687 296.608 43.859 296.608 45.2227C296.608 46.575 296.358 47.7568 295.858 48.7681C295.364 49.7795 294.671 50.5664 293.779 51.1289C292.892 51.6914 291.858 51.9727 290.676 51.9727ZM290.676 50.1659C291.574 50.1659 292.313 49.9357 292.892 49.4755C293.472 49.0153 293.901 48.4102 294.179 47.6602C294.458 46.9102 294.597 46.0977 294.597 45.2227C294.597 44.3477 294.458 43.5323 294.179 42.7767C293.901 42.021 293.472 41.4102 292.892 40.9443C292.313 40.4784 291.574 40.2454 290.676 40.2454C289.779 40.2454 289.04 40.4784 288.46 40.9443C287.881 41.4102 287.452 42.021 287.173 42.7767C286.895 43.5323 286.756 44.3477 286.756 45.2227C286.756 46.0977 286.895 46.9102 287.173 47.6602C287.452 48.4102 287.881 49.0153 288.46 49.4755C289.04 49.9357 289.779 50.1659 290.676 50.1659ZM305.508 38.609V40.3136H298.451V38.609H305.508ZM300.565 51.7V36.8022C300.565 36.0522 300.741 35.4272 301.093 34.9272C301.445 34.4272 301.903 34.0522 302.465 33.8022C303.028 33.5522 303.622 33.4272 304.247 33.4272C304.741 33.4272 305.144 33.467 305.457 33.5465C305.769 33.6261 306.002 33.7 306.156 33.7681L305.576 35.5068C305.474 35.4727 305.332 35.4301 305.15 35.3789C304.974 35.3278 304.741 35.3022 304.451 35.3022C303.786 35.3022 303.306 35.4698 303.011 35.8051C302.721 36.1403 302.576 36.6318 302.576 37.2795V51.7H300.565Z" fill="#FFA6EB"/>
<path d="M181.351 102.3V61.1399H198.814C201.245 61.1399 203.44 61.7279 205.4 62.9039C207.399 64.0407 208.967 65.6087 210.104 67.6079C211.28 69.6071 211.868 71.8611 211.868 74.3699C211.868 76.9179 211.28 79.2111 210.104 81.2495C208.967 83.2879 207.399 84.9147 205.4 86.1299C203.44 87.3059 201.245 87.8939 198.814 87.8939H190.171V102.3H181.351ZM190.053 79.9559H197.815C198.756 79.9559 199.598 79.7207 200.343 79.2503C201.088 78.7407 201.676 78.0743 202.107 77.2511C202.578 76.4279 202.813 75.4871 202.813 74.4287C202.813 73.3703 202.578 72.4491 202.107 71.6651C201.676 70.8419 201.088 70.2147 200.343 69.7835C199.598 69.3131 198.756 69.0779 197.815 69.0779H190.053V79.9559ZM229.658 102.888C227.071 102.888 224.739 102.182 222.661 100.771C220.583 99.3599 218.937 97.4391 217.722 95.0087C216.507 92.5783 215.899 89.7951 215.899 86.6591C215.899 83.5231 216.507 80.7595 217.722 78.3683C218.976 75.9379 220.662 74.0367 222.779 72.6647C224.895 71.2535 227.306 70.5479 230.011 70.5479C231.54 70.5479 232.931 70.7831 234.186 71.2535C235.479 71.6847 236.597 72.2923 237.537 73.0763C238.517 73.8603 239.341 74.7619 240.007 75.7811C240.673 76.8003 241.144 77.8979 241.418 79.0739L239.654 78.7799V71.1947H247.945V102.3H239.537V94.8323L241.418 94.6559C241.105 95.7535 240.595 96.7923 239.889 97.7723C239.184 98.7523 238.302 99.6343 237.243 100.418C236.224 101.163 235.068 101.771 233.774 102.241C232.481 102.672 231.109 102.888 229.658 102.888ZM231.951 95.6555C233.519 95.6555 234.891 95.2831 236.067 94.5383C237.243 93.7935 238.145 92.7547 238.772 91.4219C239.439 90.0499 239.772 88.4623 239.772 86.6591C239.772 84.8951 239.439 83.3467 238.772 82.0139C238.145 80.6811 237.243 79.6423 236.067 78.8975C234.891 78.1135 233.519 77.7215 231.951 77.7215C230.423 77.7215 229.07 78.1135 227.894 78.8975C226.757 79.6423 225.856 80.6811 225.189 82.0139C224.523 83.3467 224.19 84.8951 224.19 86.6591C224.19 88.4623 224.523 90.0499 225.189 91.4219C225.856 92.7547 226.757 93.7935 227.894 94.5383C229.07 95.2831 230.423 95.6555 231.951 95.6555ZM256.316 102.3V71.1947H264.313L264.548 77.5451L262.902 78.2507C263.333 76.8395 264.097 75.5655 265.195 74.4287C266.332 73.2527 267.684 72.3119 269.252 71.6063C270.82 70.9007 272.467 70.5479 274.191 70.5479C276.543 70.5479 278.503 71.0183 280.071 71.9591C281.679 72.8999 282.874 74.3307 283.658 76.2515C284.481 78.1331 284.893 80.4655 284.893 83.2487V102.3H276.543V83.8955C276.543 82.4843 276.347 81.3083 275.955 80.3675C275.563 79.4267 274.956 78.7407 274.133 78.3095C273.349 77.8391 272.369 77.6431 271.193 77.7215C270.252 77.7215 269.37 77.8783 268.547 78.1919C267.763 78.4663 267.077 78.8779 266.489 79.4267C265.94 79.9755 265.489 80.6027 265.136 81.3083C264.823 82.0139 264.666 82.7783 264.666 83.6015V102.3H260.55C259.648 102.3 258.845 102.3 258.139 102.3C257.433 102.3 256.826 102.3 256.316 102.3ZM307.359 102.888C304.184 102.888 301.342 102.202 298.833 100.83C296.363 99.4187 294.403 97.4979 292.953 95.0675C291.542 92.6371 290.836 89.8539 290.836 86.7179C290.836 83.5819 291.542 80.8183 292.953 78.4271C294.403 75.9967 296.363 74.0759 298.833 72.6647C301.342 71.2535 304.184 70.5479 307.359 70.5479C310.495 70.5479 313.298 71.2535 315.767 72.6647C318.276 74.0759 320.236 75.9967 321.647 78.4271C323.058 80.8183 323.764 83.5819 323.764 86.7179C323.764 89.8539 323.058 92.6371 321.647 95.0675C320.236 97.4979 318.276 99.4187 315.767 100.83C313.298 102.202 310.495 102.888 307.359 102.888ZM307.359 95.5967C308.888 95.5967 310.26 95.2243 311.475 94.4795C312.69 93.6955 313.631 92.6371 314.297 91.3043C315.003 89.9323 315.356 88.4035 315.356 86.7179C315.356 84.9931 315.003 83.4643 314.297 82.1315C313.631 80.7595 312.69 79.7011 311.475 78.9563C310.26 78.1723 308.888 77.7803 307.359 77.7803C305.791 77.7803 304.399 78.1723 303.184 78.9563C301.969 79.7403 301.008 80.7987 300.303 82.1315C299.597 83.4643 299.264 84.9931 299.303 86.7179C299.264 88.4035 299.597 89.9323 300.303 91.3043C301.008 92.6371 301.969 93.6955 303.184 94.4795C304.399 95.2243 305.791 95.5967 307.359 95.5967ZM330.046 102.3V71.1947H338.101L338.395 81.1907L336.984 79.1327C337.455 77.5255 338.219 76.0751 339.277 74.7815C340.336 73.4487 341.571 72.4099 342.982 71.6651C344.432 70.9203 345.941 70.5479 347.509 70.5479C348.176 70.5479 348.823 70.6067 349.45 70.7243C350.077 70.8419 350.606 70.9791 351.037 71.1359L348.803 80.3087C348.333 80.0735 347.764 79.8775 347.098 79.7207C346.431 79.5247 345.745 79.4267 345.04 79.4267C344.099 79.4267 343.217 79.6031 342.394 79.9559C341.61 80.2695 340.924 80.7399 340.336 81.3671C339.748 81.9551 339.277 82.6607 338.925 83.4839C338.611 84.3071 338.454 85.2087 338.454 86.1887V102.3H330.046ZM366.15 102.888C363.563 102.888 361.23 102.182 359.153 100.771C357.075 99.3599 355.429 97.4391 354.214 95.0087C352.998 92.5783 352.391 89.7951 352.391 86.6591C352.391 83.5231 352.998 80.7595 354.214 78.3683C355.468 75.9379 357.154 74.0367 359.27 72.6647C361.387 71.2535 363.798 70.5479 366.503 70.5479C368.032 70.5479 369.423 70.7831 370.678 71.2535C371.971 71.6847 373.088 72.2923 374.029 73.0763C375.009 73.8603 375.832 74.7619 376.499 75.7811C377.165 76.8003 377.636 77.8979 377.91 79.0739L376.146 78.7799V71.1947H384.437V102.3H376.028V94.8323L377.91 94.6559C377.596 95.7535 377.087 96.7923 376.381 97.7723C375.676 98.7523 374.794 99.6343 373.735 100.418C372.716 101.163 371.56 101.771 370.266 102.241C368.972 102.672 367.6 102.888 366.15 102.888ZM368.443 95.6555C370.011 95.6555 371.383 95.2831 372.559 94.5383C373.735 93.7935 374.637 92.7547 375.264 91.4219C375.93 90.0499 376.264 88.4623 376.264 86.6591C376.264 84.8951 375.93 83.3467 375.264 82.0139C374.637 80.6811 373.735 79.6423 372.559 78.8975C371.383 78.1135 370.011 77.7215 368.443 77.7215C366.914 77.7215 365.562 78.1135 364.386 78.8975C363.249 79.6423 362.348 80.6811 361.681 82.0139C361.015 83.3467 360.682 84.8951 360.682 86.6591C360.682 88.4623 361.015 90.0499 361.681 91.4219C362.348 92.7547 363.249 93.7935 364.386 94.5383C365.562 95.2831 366.914 95.6555 368.443 95.6555ZM392.749 102.3V71.1947H400.805L400.981 77.1335L399.746 77.3687C400.178 76.3495 400.746 75.4283 401.452 74.6051C402.157 73.7819 402.98 73.0763 403.921 72.4883C404.901 71.9003 405.92 71.4495 406.979 71.1359C408.037 70.7831 409.096 70.6067 410.154 70.6067C411.761 70.6067 413.212 70.8615 414.505 71.3711C415.799 71.8807 416.896 72.6843 417.798 73.7819C418.7 74.8403 419.405 76.2515 419.915 78.0155L418.621 77.8979L419.033 76.9571C419.542 76.0163 420.189 75.1735 420.973 74.4287C421.757 73.6447 422.639 72.9783 423.619 72.4295C424.599 71.8415 425.618 71.3907 426.677 71.0771C427.735 70.7635 428.774 70.6067 429.793 70.6067C432.224 70.6067 434.242 71.0967 435.85 72.0767C437.457 73.0175 438.652 74.4483 439.436 76.3691C440.26 78.2899 440.671 80.6419 440.671 83.4251V102.3H432.322V84.0131C432.322 82.6019 432.126 81.4455 431.734 80.5439C431.342 79.6423 430.773 78.9759 430.028 78.5447C429.284 78.0743 428.323 77.8391 427.147 77.8391C426.246 77.8391 425.403 77.9959 424.619 78.3095C423.874 78.5839 423.208 78.9955 422.62 79.5443C422.071 80.0539 421.64 80.6615 421.326 81.3671C421.012 82.0727 420.856 82.8567 420.856 83.7191V102.3H412.506V83.9543C412.506 82.6607 412.29 81.5631 411.859 80.6615C411.467 79.7207 410.899 79.0151 410.154 78.5447C409.409 78.0743 408.488 77.8391 407.39 77.8391C406.489 77.8391 405.646 77.9959 404.862 78.3095C404.117 78.5839 403.47 78.9955 402.922 79.5443C402.373 80.0539 401.922 80.6615 401.569 81.3671C401.256 82.0727 401.099 82.8371 401.099 83.6603V102.3H392.749ZM460.264 102.888C457.677 102.888 455.345 102.182 453.267 100.771C451.19 99.3599 449.543 97.4391 448.328 95.0087C447.113 92.5783 446.505 89.7951 446.505 86.6591C446.505 83.5231 447.113 80.7595 448.328 78.3683C449.582 75.9379 451.268 74.0367 453.385 72.6647C455.502 71.2535 457.912 70.5479 460.617 70.5479C462.146 70.5479 463.538 70.7831 464.792 71.2535C466.086 71.6847 467.203 72.2923 468.144 73.0763C469.124 73.8603 469.947 74.7619 470.613 75.7811C471.28 76.8003 471.75 77.8979 472.024 79.0739L470.26 78.7799V71.1947H478.551V102.3H470.143V94.8323L472.024 94.6559C471.711 95.7535 471.201 96.7923 470.496 97.7723C469.79 98.7523 468.908 99.6343 467.85 100.418C466.83 101.163 465.674 101.771 464.38 102.241C463.087 102.672 461.715 102.888 460.264 102.888ZM462.558 95.6555C464.126 95.6555 465.498 95.2831 466.674 94.5383C467.85 93.7935 468.751 92.7547 469.378 91.4219C470.045 90.0499 470.378 88.4623 470.378 86.6591C470.378 84.8951 470.045 83.3467 469.378 82.0139C468.751 80.6811 467.85 79.6423 466.674 78.8975C465.498 78.1135 464.126 77.7215 462.558 77.7215C461.029 77.7215 459.676 78.1135 458.5 78.8975C457.364 79.6423 456.462 80.6811 455.796 82.0139C455.129 83.3467 454.796 84.8951 454.796 86.6591C454.796 88.4623 455.129 90.0499 455.796 91.4219C456.462 92.7547 457.364 93.7935 458.5 94.5383C459.676 95.2831 461.029 95.6555 462.558 95.6555Z" fill="#FFA6EB"/>
<defs>
<clipPath id="clip0_9_80">
<rect width="146" height="146" rx="73" fill="white"/>
</clipPath>
</defs>
</svg>
