<svg width="483" height="146" viewBox="0 0 483 146" fill="none" xmlns="http://www.w3.org/2000/svg">
<mask id="mask0_1_2" style="mask-type:luminance" maskUnits="userSpaceOnUse" x="0" y="0" width="146" height="146">
<path d="M146 73C146 32.6832 113.317 0 73 0C32.6832 0 0 32.6832 0 73C0 113.317 32.6832 146 73 146C113.317 146 146 113.317 146 73Z" fill="white"/>
</mask>
<g mask="url(#mask0_1_2)">
<path d="M146 73C146 32.6832 113.317 0 73 0C32.6832 0 0 32.6832 0 73C0 113.317 32.6832 146 73 146C113.317 146 146 113.317 146 73Z" fill="white"/>
<path d="M146 146H0V80.3H146V146Z" fill="#E78284"/>
<path d="M146 65.7H0V0H146V65.7Z" fill="#88BB8A"/>
<path d="M73.1118 98.55L49.5881 75.0263C47.7117 73.1499 46.4608 70.9684 45.8353 68.4818C45.2251 65.9952 45.2327 63.5238 45.8582 61.0677C46.4837 58.5963 47.727 56.4453 49.5881 54.6147C51.495 52.7383 53.6689 51.495 56.1098 50.8848C58.5659 50.2593 61.0144 50.2593 63.4552 50.8848C65.9113 51.5102 68.0928 52.7535 69.9998 54.6147L73.1118 57.6352L76.2239 54.6147C78.1461 52.7535 80.3276 51.5102 82.7685 50.8848C85.2093 50.2593 87.6502 50.2593 90.091 50.8848C92.5471 51.495 94.7286 52.7383 96.6356 54.6147C98.4967 56.4453 99.74 58.5963 100.365 61.0677C100.991 63.5238 100.991 65.9952 100.365 68.4818C99.7553 70.9684 98.512 73.1499 96.6356 75.0263L73.1118 98.55Z" stroke="white" stroke-width="29.2"/>
<path d="M73.1118 98.55L49.5881 75.0263C47.7117 73.1499 46.4608 70.9684 45.8353 68.4818C45.2251 65.9952 45.2327 63.5238 45.8582 61.0677C46.4837 58.5963 47.727 56.4453 49.5881 54.6147C51.495 52.7383 53.6689 51.495 56.1098 50.8848C58.5659 50.2593 61.0144 50.2593 63.4552 50.8848C65.9113 51.5102 68.0928 52.7535 69.9998 54.6147L73.1118 57.6352L76.2239 54.6147C78.1461 52.7535 80.3276 51.5102 82.7685 50.8848C85.2093 50.2593 87.6502 50.2593 90.091 50.8848C92.5471 51.495 94.7286 52.7383 96.6356 54.6147C98.4967 56.4453 99.74 58.5963 100.365 61.0677C100.991 63.5238 100.991 65.9952 100.365 68.4818C99.7553 70.9684 98.512 73.1499 96.6356 75.0263L73.1118 98.55Z" fill="#FFA6EB"/>
</g>
<path d="M178 81.1601V40H195.463C197.894 40 200.089 40.588 202.049 41.764C204.048 42.9008 205.616 44.4688 206.753 46.468C207.929 48.4672 208.517 50.7212 208.517 53.23C208.517 55.778 207.929 58.0712 206.753 60.1096C205.616 62.148 204.048 63.7748 202.049 64.99C200.089 66.166 197.894 66.754 195.463 66.754H186.82V81.1601H178ZM186.702 58.816H194.464C195.405 58.816 196.247 58.5808 196.992 58.1104C197.737 57.6008 198.325 56.9344 198.756 56.1112C199.227 55.288 199.462 54.3472 199.462 53.2888C199.462 52.2304 199.227 51.3092 198.756 50.5252C198.325 49.702 197.737 49.0748 196.992 48.6436C196.247 48.1732 195.405 47.938 194.464 47.938H186.702V58.816ZM226.307 81.7481C223.72 81.7481 221.388 81.0421 219.31 79.6311C217.232 78.22 215.586 76.2992 214.371 73.8688C213.156 71.4384 212.548 68.6552 212.548 65.5192C212.548 62.3832 213.156 59.6196 214.371 57.2284C215.625 54.798 217.311 52.8968 219.428 51.5248C221.544 50.1136 223.955 49.408 226.66 49.408C228.189 49.408 229.58 49.6432 230.835 50.1136C232.128 50.5448 233.246 51.1524 234.186 51.9364C235.166 52.7204 235.99 53.622 236.656 54.6412C237.322 55.6604 237.793 56.758 238.067 57.934L236.303 57.64V50.0548H244.594V81.1601H236.186V73.6924L238.067 73.516C237.754 74.6136 237.244 75.6524 236.538 76.6324C235.833 77.6124 234.951 78.4944 233.892 79.2781C232.873 80.0231 231.717 80.6311 230.423 81.1011C229.13 81.5321 227.758 81.7481 226.307 81.7481ZM228.6 74.5156C230.168 74.5156 231.54 74.1432 232.716 73.3984C233.892 72.6536 234.794 71.6148 235.421 70.282C236.088 68.91 236.421 67.3224 236.421 65.5192C236.421 63.7552 236.088 62.2068 235.421 60.874C234.794 59.5412 233.892 58.5024 232.716 57.7576C231.54 56.9736 230.168 56.5816 228.6 56.5816C227.072 56.5816 225.719 56.9736 224.543 57.7576C223.406 58.5024 222.505 59.5412 221.838 60.874C221.172 62.2068 220.839 63.7552 220.839 65.5192C220.839 67.3224 221.172 68.91 221.838 70.282C222.505 71.6148 223.406 72.6536 224.543 73.3984C225.719 74.1432 227.072 74.5156 228.6 74.5156ZM252.965 81.1601V50.0548H260.962L261.197 56.4052L259.551 57.1108C259.982 55.6996 260.746 54.4256 261.844 53.2888C262.981 52.1128 264.333 51.172 265.901 50.4664C267.469 49.7608 269.116 49.408 270.84 49.408C273.192 49.408 275.152 49.8784 276.72 50.8192C278.328 51.76 279.523 53.1908 280.307 55.1116C281.13 56.9932 281.542 59.3256 281.542 62.1088V81.1601H273.192V62.7556C273.192 61.3444 272.996 60.1684 272.604 59.2276C272.212 58.2868 271.605 57.6008 270.782 57.1696C269.998 56.6992 269.018 56.5032 267.842 56.5816C266.901 56.5816 266.019 56.7384 265.196 57.052C264.412 57.3264 263.726 57.738 263.138 58.2868C262.589 58.8356 262.138 59.4628 261.785 60.1684C261.472 60.874 261.315 61.6384 261.315 62.4616V81.1601H257.199C256.297 81.1601 255.494 81.1601 254.788 81.1601C254.082 81.1601 253.475 81.1601 252.965 81.1601ZM304.008 81.7481C300.833 81.7481 297.991 81.0621 295.482 79.6901C293.012 78.2788 291.052 76.358 289.602 73.9276C288.191 71.4972 287.485 68.714 287.485 65.578C287.485 62.442 288.191 59.6784 289.602 57.2872C291.052 54.8568 293.012 52.936 295.482 51.5248C297.991 50.1136 300.833 49.408 304.008 49.408C307.144 49.408 309.947 50.1136 312.416 51.5248C314.925 52.936 316.885 54.8568 318.296 57.2872C319.707 59.6784 320.413 62.442 320.413 65.578C320.413 68.714 319.707 71.4972 318.296 73.9276C316.885 76.358 314.925 78.2788 312.416 79.6901C309.947 81.0621 307.144 81.7481 304.008 81.7481ZM304.008 74.4568C305.537 74.4568 306.909 74.0844 308.124 73.3396C309.339 72.5556 310.28 71.4972 310.946 70.1644C311.652 68.7924 312.005 67.2636 312.005 65.578C312.005 63.8532 311.652 62.3244 310.946 60.9916C310.28 59.6196 309.339 58.5612 308.124 57.8164C306.909 57.0324 305.537 56.6404 304.008 56.6404C302.44 56.6404 301.048 57.0324 299.833 57.8164C298.618 58.6004 297.657 59.6588 296.952 60.9916C296.246 62.3244 295.913 63.8532 295.952 65.578C295.913 67.2636 296.246 68.7924 296.952 70.1644C297.657 71.4972 298.618 72.5556 299.833 73.3396C301.048 74.0844 302.44 74.4568 304.008 74.4568ZM326.695 81.1601V50.0548H334.75L335.044 60.0508L333.633 57.9928C334.104 56.3856 334.868 54.9352 335.926 53.6416C336.985 52.3088 338.22 51.27 339.631 50.5252C341.081 49.7804 342.59 49.408 344.158 49.408C344.825 49.408 345.472 49.4668 346.099 49.5844C346.726 49.702 347.255 49.8392 347.686 49.996L345.452 59.1688C344.982 58.9336 344.413 58.7376 343.747 58.5808C343.08 58.3848 342.394 58.2868 341.689 58.2868C340.748 58.2868 339.866 58.4632 339.043 58.816C338.259 59.1296 337.573 59.6 336.985 60.2272C336.397 60.8152 335.926 61.5208 335.574 62.344C335.26 63.1672 335.103 64.0688 335.103 65.0488V81.1601H326.695ZM362.799 81.7481C360.212 81.7481 357.879 81.0421 355.802 79.6311C353.724 78.22 352.078 76.2992 350.863 73.8688C349.647 71.4384 349.04 68.6552 349.04 65.5192C349.04 62.3832 349.647 59.6196 350.863 57.2284C352.117 54.798 353.803 52.8968 355.919 51.5248C358.036 50.1136 360.447 49.408 363.152 49.408C364.681 49.408 366.072 49.6432 367.327 50.1136C368.62 50.5448 369.737 51.1524 370.678 51.9364C371.658 52.7204 372.481 53.622 373.148 54.6412C373.814 55.6604 374.285 56.758 374.559 57.934L372.795 57.64V50.0548H381.086V81.1601H372.677V73.6924L374.559 73.516C374.245 74.6136 373.736 75.6524 373.03 76.6324C372.325 77.6124 371.443 78.4944 370.384 79.2781C369.365 80.0231 368.209 80.6311 366.915 81.1011C365.621 81.5321 364.249 81.7481 362.799 81.7481ZM365.092 74.5156C366.66 74.5156 368.032 74.1432 369.208 73.3984C370.384 72.6536 371.286 71.6148 371.913 70.282C372.579 68.91 372.913 67.3224 372.913 65.5192C372.913 63.7552 372.579 62.2068 371.913 60.874C371.286 59.5412 370.384 58.5024 369.208 57.7576C368.032 56.9736 366.66 56.5816 365.092 56.5816C363.563 56.5816 362.211 56.9736 361.035 57.7576C359.898 58.5024 358.997 59.5412 358.33 60.874C357.664 62.2068 357.331 63.7552 357.331 65.5192C357.331 67.3224 357.664 68.91 358.33 70.282C358.997 71.6148 359.898 72.6536 361.035 73.3984C362.211 74.1432 363.563 74.5156 365.092 74.5156ZM389.398 81.1601V50.0548H397.454L397.63 55.9936L396.395 56.2288C396.827 55.2096 397.395 54.2884 398.101 53.4652C398.806 52.642 399.629 51.9364 400.57 51.3484C401.55 50.7604 402.569 50.3096 403.628 49.996C404.686 49.6432 405.745 49.4668 406.803 49.4668C408.41 49.4668 409.861 49.7216 411.154 50.2312C412.448 50.7408 413.545 51.5444 414.447 52.642C415.349 53.7004 416.054 55.1116 416.564 56.8756L415.27 56.758L415.682 55.8172C416.191 54.8764 416.838 54.0336 417.622 53.2888C418.406 52.5048 419.288 51.8384 420.268 51.2896C421.248 50.7016 422.267 50.2508 423.326 49.9372C424.384 49.6236 425.423 49.4668 426.442 49.4668C428.873 49.4668 430.891 49.9568 432.499 50.9368C434.106 51.8776 435.301 53.3084 436.085 55.2292C436.909 57.15 437.32 59.502 437.32 62.2852V81.1601H428.971V62.8732C428.971 61.462 428.775 60.3056 428.383 59.404C427.991 58.5024 427.422 57.836 426.677 57.4048C425.933 56.9344 424.972 56.6992 423.796 56.6992C422.895 56.6992 422.052 56.856 421.268 57.1696C420.523 57.444 419.857 57.8556 419.269 58.4044C418.72 58.914 418.289 59.5216 417.975 60.2272C417.661 60.9328 417.505 61.7168 417.505 62.5792V81.1601H409.155V62.8144C409.155 61.5208 408.939 60.4232 408.508 59.5216C408.116 58.5808 407.548 57.8752 406.803 57.4048C406.058 56.9344 405.137 56.6992 404.039 56.6992C403.138 56.6992 402.295 56.856 401.511 57.1696C400.766 57.444 400.119 57.8556 399.571 58.4044C399.022 58.914 398.571 59.5216 398.218 60.2272C397.905 60.9328 397.748 61.6972 397.748 62.5204V81.1601H389.398ZM456.913 81.7481C454.326 81.7481 451.994 81.0421 449.916 79.6311C447.839 78.22 446.192 76.2992 444.977 73.8688C443.762 71.4384 443.154 68.6552 443.154 65.5192C443.154 62.3832 443.762 59.6196 444.977 57.2284C446.231 54.798 447.917 52.8968 450.034 51.5248C452.151 50.1136 454.561 49.408 457.266 49.408C458.795 49.408 460.187 49.6432 461.441 50.1136C462.735 50.5448 463.852 51.1524 464.793 51.9364C465.773 52.7204 466.596 53.622 467.262 54.6412C467.929 55.6604 468.399 56.758 468.673 57.934L466.909 57.64V50.0548H475.2V81.1601H466.792V73.6924L468.673 73.516C468.36 74.6136 467.85 75.6524 467.145 76.6324C466.439 77.6124 465.557 78.4944 464.499 79.2781C463.479 80.0231 462.323 80.6311 461.029 81.1011C459.736 81.5321 458.364 81.7481 456.913 81.7481ZM459.207 74.5156C460.775 74.5156 462.147 74.1432 463.323 73.3984C464.499 72.6536 465.4 71.6148 466.027 70.282C466.694 68.91 467.027 67.3224 467.027 65.5192C467.027 63.7552 466.694 62.2068 466.027 60.874C465.4 59.5412 464.499 58.5024 463.323 57.7576C462.147 56.9736 460.775 56.5816 459.207 56.5816C457.678 56.5816 456.325 56.9736 455.149 57.7576C454.013 58.5024 453.111 59.5412 452.445 60.874C451.778 62.2068 451.445 63.7552 451.445 65.5192C451.445 67.3224 451.778 68.91 452.445 70.282C453.111 71.6148 454.013 72.6536 455.149 73.3984C456.325 74.1432 457.678 74.5156 459.207 74.5156Z" fill="#FFA6EB"/>
<path d="M185.821 93.4205C185.761 92.8826 185.511 92.4659 185.071 92.1705C184.632 91.8712 184.079 91.7216 183.412 91.7216C182.935 91.7216 182.522 91.7973 182.174 91.9489C181.825 92.0966 181.554 92.3011 181.361 92.5625C181.172 92.8201 181.077 93.1136 181.077 93.4432C181.077 93.7197 181.141 93.9583 181.27 94.1591C181.403 94.3598 181.575 94.5284 181.787 94.6648C182.003 94.7973 182.234 94.9091 182.48 95C182.727 95.0871 182.963 95.1591 183.191 95.2159L184.327 95.5114C184.698 95.6023 185.079 95.7254 185.469 95.8807C185.859 96.036 186.221 96.2405 186.554 96.4943C186.888 96.7481 187.156 97.0625 187.361 97.4375C187.569 97.8125 187.674 98.2614 187.674 98.7841C187.674 99.4432 187.503 100.028 187.162 100.54C186.825 101.051 186.335 101.455 185.691 101.75C185.05 102.045 184.276 102.193 183.367 102.193C182.496 102.193 181.742 102.055 181.105 101.778C180.469 101.502 179.971 101.11 179.611 100.602C179.251 100.091 179.052 99.4848 179.014 98.7841H180.776C180.81 99.2045 180.946 99.5549 181.185 99.8352C181.427 100.112 181.736 100.318 182.111 100.455C182.49 100.587 182.905 100.653 183.355 100.653C183.852 100.653 184.293 100.576 184.679 100.42C185.069 100.261 185.376 100.042 185.6 99.7614C185.823 99.4773 185.935 99.1458 185.935 98.767C185.935 98.4223 185.836 98.1402 185.639 97.9205C185.446 97.7008 185.183 97.5189 184.85 97.375C184.52 97.2311 184.147 97.1042 183.73 96.9943L182.355 96.6193C181.424 96.3655 180.685 95.9924 180.139 95.5C179.598 95.0076 179.327 94.3561 179.327 93.5455C179.327 92.875 179.509 92.2898 179.872 91.7898C180.236 91.2898 180.728 90.9015 181.35 90.625C181.971 90.3447 182.672 90.2045 183.452 90.2045C184.24 90.2045 184.935 90.3428 185.537 90.6193C186.143 90.8958 186.621 91.2765 186.969 91.7614C187.317 92.2424 187.499 92.7955 187.514 93.4205H185.821ZM200.991 102.176C200.173 102.176 199.459 101.989 198.849 101.614C198.239 101.239 197.766 100.714 197.429 100.04C197.092 99.3655 196.923 98.5777 196.923 97.6761C196.923 96.7708 197.092 95.9792 197.429 95.3011C197.766 94.6231 198.239 94.0966 198.849 93.7216C199.459 93.3466 200.173 93.1591 200.991 93.1591C201.809 93.1591 202.524 93.3466 203.133 93.7216C203.743 94.0966 204.217 94.6231 204.554 95.3011C204.891 95.9792 205.059 96.7708 205.059 97.6761C205.059 98.5777 204.891 99.3655 204.554 100.04C204.217 100.714 203.743 101.239 203.133 101.614C202.524 101.989 201.809 102.176 200.991 102.176ZM200.997 100.75C201.527 100.75 201.967 100.61 202.315 100.33C202.664 100.049 202.921 99.6761 203.088 99.2102C203.258 98.7443 203.344 98.2311 203.344 97.6705C203.344 97.1136 203.258 96.6023 203.088 96.1364C202.921 95.6667 202.664 95.2898 202.315 95.0057C201.967 94.7216 201.527 94.5795 200.997 94.5795C200.463 94.5795 200.02 94.7216 199.667 95.0057C199.319 95.2898 199.059 95.6667 198.889 96.1364C198.722 96.6023 198.639 97.1136 198.639 97.6705C198.639 98.2311 198.722 98.7443 198.889 99.2102C199.059 99.6761 199.319 100.049 199.667 100.33C200.02 100.61 200.463 100.75 200.997 100.75ZM218.312 102.176C217.467 102.176 216.74 101.985 216.13 101.602C215.524 101.216 215.058 100.684 214.732 100.006C214.407 99.3277 214.244 98.5511 214.244 97.6761C214.244 96.7898 214.41 96.0076 214.744 95.3295C215.077 94.6477 215.547 94.1155 216.153 93.733C216.759 93.3504 217.473 93.1591 218.295 93.1591C218.958 93.1591 219.549 93.2822 220.068 93.5284C220.587 93.7708 221.005 94.1117 221.323 94.5511C221.645 94.9905 221.837 95.5038 221.897 96.0909H220.244C220.153 95.6818 219.945 95.3295 219.619 95.0341C219.297 94.7386 218.865 94.5909 218.323 94.5909C217.85 94.5909 217.435 94.7159 217.079 94.9659C216.727 95.2121 216.452 95.5644 216.255 96.0227C216.058 96.4773 215.96 97.0152 215.96 97.6364C215.96 98.2727 216.056 98.822 216.249 99.2841C216.443 99.7462 216.715 100.104 217.068 100.358C217.424 100.612 217.842 100.739 218.323 100.739C218.645 100.739 218.937 100.68 219.198 100.562C219.463 100.441 219.685 100.269 219.863 100.045C220.045 99.822 220.172 99.553 220.244 99.2386H221.897C221.837 99.803 221.653 100.307 221.346 100.75C221.039 101.193 220.628 101.542 220.113 101.795C219.602 102.049 219.001 102.176 218.312 102.176ZM231.394 102V93.2727H233.093V102H231.394ZM232.252 91.9261C231.956 91.9261 231.703 91.8277 231.491 91.6307C231.282 91.4299 231.178 91.1913 231.178 90.9148C231.178 90.6345 231.282 90.3958 231.491 90.1989C231.703 89.9981 231.956 89.8977 232.252 89.8977C232.547 89.8977 232.799 89.9981 233.008 90.1989C233.22 90.3958 233.326 90.6345 233.326 90.9148C233.326 91.1913 233.22 91.4299 233.008 91.6307C232.799 91.8277 232.547 91.9261 232.252 91.9261ZM245.598 102.193C245.045 102.193 244.545 102.091 244.098 101.886C243.651 101.678 243.297 101.377 243.036 100.983C242.778 100.589 242.649 100.106 242.649 99.5341C242.649 99.0417 242.744 98.6364 242.933 98.3182C243.123 98 243.378 97.7481 243.7 97.5625C244.022 97.3769 244.382 97.2367 244.78 97.142C245.178 97.0473 245.583 96.9754 245.996 96.9261C246.519 96.8655 246.943 96.8163 247.269 96.7784C247.594 96.7367 247.831 96.6705 247.979 96.5795C248.126 96.4886 248.2 96.3409 248.2 96.1364V96.0966C248.2 95.6004 248.06 95.2159 247.78 94.9432C247.503 94.6705 247.091 94.5341 246.541 94.5341C245.969 94.5341 245.519 94.661 245.189 94.9148C244.863 95.1648 244.638 95.4432 244.513 95.75L242.916 95.3864C243.106 94.8561 243.382 94.428 243.746 94.1023C244.113 93.7727 244.536 93.5341 245.013 93.3864C245.49 93.2348 245.992 93.1591 246.519 93.1591C246.867 93.1591 247.236 93.2008 247.626 93.2841C248.02 93.3636 248.388 93.5114 248.729 93.7273C249.073 93.9432 249.356 94.2519 249.575 94.6534C249.795 95.0511 249.905 95.5682 249.905 96.2045V102H248.246V100.807H248.178C248.068 101.027 247.903 101.242 247.683 101.455C247.464 101.667 247.181 101.843 246.837 101.983C246.492 102.123 246.079 102.193 245.598 102.193ZM245.967 100.83C246.437 100.83 246.839 100.737 247.172 100.551C247.509 100.366 247.765 100.123 247.939 99.8239C248.117 99.5208 248.206 99.197 248.206 98.8523V97.7273C248.145 97.7879 248.028 97.8447 247.854 97.8977C247.683 97.947 247.488 97.9905 247.269 98.0284C247.049 98.0625 246.835 98.0947 246.626 98.125C246.418 98.1515 246.244 98.1742 246.104 98.1932C245.774 98.2348 245.473 98.3049 245.2 98.4034C244.931 98.5019 244.716 98.6439 244.553 98.8295C244.394 99.0114 244.314 99.2538 244.314 99.5568C244.314 99.9773 244.469 100.295 244.78 100.511C245.091 100.723 245.486 100.83 245.967 100.83ZM261.547 90.3636V102H259.848V90.3636H261.547ZM271.512 102V93.2727H273.211V102H271.512ZM272.37 91.9261C272.075 91.9261 271.821 91.8277 271.609 91.6307C271.4 91.4299 271.296 91.1913 271.296 90.9148C271.296 90.6345 271.4 90.3958 271.609 90.1989C271.821 89.9981 272.075 89.8977 272.37 89.8977C272.665 89.8977 272.917 89.9981 273.126 90.1989C273.338 90.3958 273.444 90.6345 273.444 90.9148C273.444 91.1913 273.338 91.4299 273.126 91.6307C272.917 91.8277 272.665 91.9261 272.37 91.9261ZM289.716 95.4034L288.176 95.6761C288.112 95.4792 288.01 95.2917 287.87 95.1136C287.733 94.9356 287.548 94.7898 287.313 94.6761C287.078 94.5625 286.784 94.5057 286.432 94.5057C285.951 94.5057 285.55 94.6136 285.228 94.8295C284.906 95.0417 284.745 95.3163 284.745 95.6534C284.745 95.9451 284.853 96.1799 285.068 96.358C285.284 96.536 285.633 96.6818 286.114 96.7955L287.5 97.1136C288.303 97.2992 288.902 97.5852 289.296 97.9716C289.69 98.358 289.887 98.8598 289.887 99.4773C289.887 100 289.735 100.466 289.432 100.875C289.133 101.28 288.714 101.598 288.176 101.83C287.642 102.061 287.023 102.176 286.318 102.176C285.341 102.176 284.544 101.968 283.926 101.551C283.309 101.131 282.93 100.534 282.79 99.7614L284.432 99.5114C284.534 99.9394 284.745 100.263 285.063 100.483C285.381 100.699 285.796 100.807 286.307 100.807C286.864 100.807 287.309 100.691 287.642 100.46C287.976 100.225 288.142 99.9394 288.142 99.6023C288.142 99.3295 288.04 99.1004 287.836 98.9148C287.635 98.7292 287.326 98.589 286.909 98.4943L285.432 98.1705C284.618 97.9848 284.015 97.6894 283.625 97.2841C283.239 96.8788 283.046 96.3655 283.046 95.7443C283.046 95.2292 283.19 94.7784 283.478 94.392C283.765 94.0057 284.163 93.7045 284.671 93.4886C285.178 93.2689 285.76 93.1591 286.415 93.1591C287.358 93.1591 288.101 93.3636 288.642 93.7727C289.184 94.178 289.542 94.7216 289.716 95.4034ZM303.508 93.2727V94.6364H298.741V93.2727H303.508ZM300.02 91.1818H301.719V99.4375C301.719 99.767 301.768 100.015 301.866 100.182C301.965 100.345 302.092 100.456 302.247 100.517C302.406 100.574 302.578 100.602 302.764 100.602C302.9 100.602 303.02 100.593 303.122 100.574C303.224 100.555 303.304 100.54 303.361 100.528L303.668 101.932C303.569 101.97 303.429 102.008 303.247 102.045C303.065 102.087 302.838 102.11 302.565 102.114C302.118 102.121 301.702 102.042 301.315 101.875C300.929 101.708 300.616 101.451 300.378 101.102C300.139 100.754 300.02 100.316 300.02 99.7898V91.1818ZM325.118 102V90.3636H332.334V91.875H326.874V95.4205H331.817V96.9261H326.874V102H325.118ZM345.158 102.176C344.298 102.176 343.557 101.992 342.936 101.625C342.319 101.254 341.842 100.733 341.504 100.062C341.171 99.3883 341.004 98.5985 341.004 97.6932C341.004 96.7992 341.171 96.0114 341.504 95.3295C341.842 94.6477 342.311 94.1155 342.913 93.733C343.52 93.3504 344.228 93.1591 345.038 93.1591C345.531 93.1591 346.008 93.2405 346.47 93.4034C346.932 93.5663 347.347 93.822 347.715 94.1705C348.082 94.5189 348.372 94.9716 348.584 95.5284C348.796 96.0814 348.902 96.7538 348.902 97.5455V98.1477H341.965V96.875H347.237C347.237 96.428 347.146 96.0322 346.965 95.6875C346.783 95.339 346.527 95.0644 346.198 94.8636C345.872 94.6629 345.489 94.5625 345.05 94.5625C344.573 94.5625 344.156 94.6799 343.8 94.9148C343.448 95.1458 343.175 95.4489 342.982 95.8239C342.792 96.1951 342.698 96.5985 342.698 97.0341V98.0284C342.698 98.6117 342.8 99.108 343.004 99.517C343.213 99.9261 343.502 100.239 343.874 100.455C344.245 100.667 344.679 100.773 345.175 100.773C345.497 100.773 345.79 100.727 346.056 100.636C346.321 100.542 346.55 100.402 346.743 100.216C346.936 100.03 347.084 99.8011 347.186 99.5284L348.794 99.8182C348.665 100.292 348.434 100.706 348.101 101.062C347.771 101.415 347.357 101.689 346.857 101.886C346.36 102.08 345.794 102.176 345.158 102.176ZM361.734 102.17C361.03 102.17 360.401 101.991 359.848 101.631C359.298 101.267 358.867 100.75 358.552 100.08C358.242 99.4053 358.086 98.5966 358.086 97.6534C358.086 96.7102 358.244 95.9034 358.558 95.233C358.876 94.5625 359.312 94.0492 359.865 93.6932C360.418 93.3371 361.045 93.1591 361.745 93.1591C362.287 93.1591 362.723 93.25 363.052 93.4318C363.386 93.6098 363.643 93.8182 363.825 94.0568C364.011 94.2955 364.155 94.5057 364.257 94.6875H364.359V90.3636H366.058V102H364.399V100.642H364.257C364.155 100.828 364.007 101.04 363.814 101.278C363.624 101.517 363.363 101.725 363.03 101.903C362.696 102.081 362.264 102.17 361.734 102.17ZM362.109 100.722C362.598 100.722 363.011 100.593 363.348 100.335C363.689 100.074 363.946 99.7121 364.12 99.25C364.298 98.7879 364.388 98.25 364.388 97.6364C364.388 97.0303 364.3 96.5 364.126 96.0455C363.952 95.5909 363.696 95.2367 363.359 94.983C363.022 94.7292 362.605 94.6023 362.109 94.6023C361.598 94.6023 361.172 94.7348 360.831 95C360.49 95.2652 360.232 95.6269 360.058 96.0852C359.888 96.5436 359.802 97.0606 359.802 97.6364C359.802 98.2197 359.889 98.7443 360.064 99.2102C360.238 99.6761 360.495 100.045 360.836 100.318C361.181 100.587 361.605 100.722 362.109 100.722ZM379.924 102.176C379.064 102.176 378.324 101.992 377.702 101.625C377.085 101.254 376.608 100.733 376.271 100.062C375.937 99.3883 375.771 98.5985 375.771 97.6932C375.771 96.7992 375.937 96.0114 376.271 95.3295C376.608 94.6477 377.077 94.1155 377.68 93.733C378.286 93.3504 378.994 93.1591 379.805 93.1591C380.297 93.1591 380.774 93.2405 381.237 93.4034C381.699 93.5663 382.113 93.822 382.481 94.1705C382.848 94.5189 383.138 94.9716 383.35 95.5284C383.562 96.0814 383.668 96.7538 383.668 97.5455V98.1477H376.731V96.875H382.004C382.004 96.428 381.913 96.0322 381.731 95.6875C381.549 95.339 381.293 95.0644 380.964 94.8636C380.638 94.6629 380.255 94.5625 379.816 94.5625C379.339 94.5625 378.922 94.6799 378.566 94.9148C378.214 95.1458 377.941 95.4489 377.748 95.8239C377.559 96.1951 377.464 96.5985 377.464 97.0341V98.0284C377.464 98.6117 377.566 99.108 377.771 99.517C377.979 99.9261 378.269 100.239 378.64 100.455C379.011 100.667 379.445 100.773 379.941 100.773C380.263 100.773 380.557 100.727 380.822 100.636C381.087 100.542 381.316 100.402 381.509 100.216C381.702 100.03 381.85 99.8011 381.952 99.5284L383.56 99.8182C383.432 100.292 383.201 100.706 382.867 101.062C382.538 101.415 382.123 101.689 381.623 101.886C381.127 102.08 380.56 102.176 379.924 102.176ZM393.233 102V93.2727H394.875V94.6591H394.966C395.125 94.1894 395.406 93.8201 395.807 93.5511C396.212 93.2784 396.671 93.142 397.182 93.142C397.288 93.142 397.413 93.1458 397.557 93.1534C397.705 93.161 397.82 93.1705 397.904 93.1818V94.8068C397.836 94.7879 397.714 94.767 397.54 94.7443C397.366 94.7178 397.192 94.7045 397.017 94.7045C396.616 94.7045 396.258 94.7898 395.944 94.9602C395.633 95.1269 395.387 95.3598 395.205 95.6591C395.023 95.9545 394.932 96.2917 394.932 96.6705V102H393.233ZM409.516 102.193C408.963 102.193 408.463 102.091 408.016 101.886C407.569 101.678 407.214 101.377 406.953 100.983C406.695 100.589 406.567 100.106 406.567 99.5341C406.567 99.0417 406.661 98.6364 406.851 98.3182C407.04 98 407.296 97.7481 407.618 97.5625C407.94 97.3769 408.3 97.2367 408.697 97.142C409.095 97.0473 409.5 96.9754 409.913 96.9261C410.436 96.8655 410.86 96.8163 411.186 96.7784C411.512 96.7367 411.749 96.6705 411.896 96.5795C412.044 96.4886 412.118 96.3409 412.118 96.1364V96.0966C412.118 95.6004 411.978 95.2159 411.697 94.9432C411.421 94.6705 411.008 94.5341 410.459 94.5341C409.887 94.5341 409.436 94.661 409.106 94.9148C408.781 95.1648 408.555 95.4432 408.43 95.75L406.834 95.3864C407.023 94.8561 407.3 94.428 407.663 94.1023C408.031 93.7727 408.453 93.5341 408.93 93.3864C409.408 93.2348 409.91 93.1591 410.436 93.1591C410.785 93.1591 411.154 93.2008 411.544 93.2841C411.938 93.3636 412.305 93.5114 412.646 93.7273C412.991 93.9432 413.273 94.2519 413.493 94.6534C413.713 95.0511 413.822 95.5682 413.822 96.2045V102H412.163V100.807H412.095C411.985 101.027 411.82 101.242 411.601 101.455C411.381 101.667 411.099 101.843 410.754 101.983C410.41 102.123 409.997 102.193 409.516 102.193ZM409.885 100.83C410.355 100.83 410.756 100.737 411.089 100.551C411.427 100.366 411.682 100.123 411.856 99.8239C412.035 99.5208 412.124 99.197 412.124 98.8523V97.7273C412.063 97.7879 411.945 97.8447 411.771 97.8977C411.601 97.947 411.406 97.9905 411.186 98.0284C410.966 98.0625 410.752 98.0947 410.544 98.125C410.336 98.1515 410.161 98.1742 410.021 98.1932C409.692 98.2348 409.391 98.3049 409.118 98.4034C408.849 98.5019 408.633 98.6439 408.47 98.8295C408.311 99.0114 408.231 99.2538 408.231 99.5568C408.231 99.9773 408.387 100.295 408.697 100.511C409.008 100.723 409.404 100.83 409.885 100.83ZM427.839 93.2727V94.6364H423.072V93.2727H427.839ZM424.35 91.1818H426.049V99.4375C426.049 99.767 426.099 100.015 426.197 100.182C426.295 100.345 426.422 100.456 426.578 100.517C426.737 100.574 426.909 100.602 427.095 100.602C427.231 100.602 427.35 100.593 427.453 100.574C427.555 100.555 427.635 100.54 427.691 100.528L427.998 101.932C427.9 101.97 427.76 102.008 427.578 102.045C427.396 102.087 427.169 102.11 426.896 102.114C426.449 102.121 426.032 102.042 425.646 101.875C425.26 101.708 424.947 101.451 424.708 101.102C424.47 100.754 424.35 100.316 424.35 99.7898V91.1818ZM437.398 102V93.2727H439.097V102H437.398ZM438.256 91.9261C437.961 91.9261 437.707 91.8277 437.495 91.6307C437.287 91.4299 437.182 91.1913 437.182 90.9148C437.182 90.6345 437.287 90.3958 437.495 90.1989C437.707 89.9981 437.961 89.8977 438.256 89.8977C438.552 89.8977 438.804 89.9981 439.012 90.1989C439.224 90.3958 439.33 90.6345 439.33 90.9148C439.33 91.1913 439.224 91.4299 439.012 91.6307C438.804 91.8277 438.552 91.9261 438.256 91.9261ZM452.739 102.176C451.921 102.176 451.207 101.989 450.597 101.614C449.987 101.239 449.513 100.714 449.176 100.04C448.839 99.3655 448.671 98.5777 448.671 97.6761C448.671 96.7708 448.839 95.9792 449.176 95.3011C449.513 94.6231 449.987 94.0966 450.597 93.7216C451.207 93.3466 451.921 93.1591 452.739 93.1591C453.557 93.1591 454.271 93.3466 454.881 93.7216C455.491 94.0966 455.964 94.6231 456.301 95.3011C456.638 95.9792 456.807 96.7708 456.807 97.6761C456.807 98.5777 456.638 99.3655 456.301 100.04C455.964 100.714 455.491 101.239 454.881 101.614C454.271 101.989 453.557 102.176 452.739 102.176ZM452.744 100.75C453.275 100.75 453.714 100.61 454.063 100.33C454.411 100.049 454.669 99.6761 454.835 99.2102C455.006 98.7443 455.091 98.2311 455.091 97.6705C455.091 97.1136 455.006 96.6023 454.835 96.1364C454.669 95.6667 454.411 95.2898 454.063 95.0057C453.714 94.7216 453.275 94.5795 452.744 94.5795C452.21 94.5795 451.767 94.7216 451.415 95.0057C451.066 95.2898 450.807 95.6667 450.637 96.1364C450.47 96.6023 450.387 97.1136 450.387 97.6705C450.387 98.2311 450.47 98.7443 450.637 99.2102C450.807 99.6761 451.066 100.049 451.415 100.33C451.767 100.61 452.21 100.75 452.744 100.75ZM468.082 96.8182V102H466.383V93.2727H468.014V94.6932H468.122C468.323 94.2311 468.637 93.8598 469.065 93.5795C469.497 93.2992 470.04 93.1591 470.696 93.1591C471.29 93.1591 471.811 93.2841 472.258 93.5341C472.705 93.7803 473.052 94.1477 473.298 94.6364C473.544 95.125 473.667 95.7292 473.667 96.4489V102H471.969V96.6534C471.969 96.0208 471.804 95.5265 471.474 95.1705C471.145 94.8106 470.692 94.6307 470.116 94.6307C469.722 94.6307 469.372 94.7159 469.065 94.8864C468.762 95.0568 468.522 95.3068 468.344 95.6364C468.169 95.9621 468.082 96.3561 468.082 96.8182Z" fill="#FFA6EB"/>
</svg>
