<svg width="1024" height="640" viewBox="0 0 1024 640" fill="none" xmlns="http://www.w3.org/2000/svg">
<g clip-path="url(#clip0_13_132)">
<rect width="1024" height="640" fill="white"/>
<rect width="1024" height="288" transform="matrix(1 0 0 -1 0 640)" fill="#FFAA7A"/>
<rect width="1024" height="288" transform="matrix(1 0 0 -1 0 288)" fill="#88BB8A"/>
<path d="M511.55 432L408.432 328.882C400.207 320.657 394.723 311.094 391.981 300.194C389.307 289.294 389.34 278.46 392.082 267.694C394.824 256.86 400.274 247.431 408.432 239.407C416.791 231.181 426.321 225.731 437.02 223.056C447.787 220.315 458.52 220.315 469.219 223.056C479.986 225.798 489.549 231.248 497.908 239.407L511.55 252.647L525.192 239.407C533.618 231.248 543.181 225.798 553.88 223.056C564.58 220.315 575.279 220.315 585.979 223.056C596.746 225.731 606.308 231.181 614.667 239.407C622.826 247.431 628.276 256.86 631.018 267.694C633.76 278.46 633.76 289.294 631.018 300.194C628.343 311.094 622.893 320.657 614.667 328.882L511.55 432Z" stroke="white" stroke-width="128"/>
<path d="M511.55 432L408.432 328.882C400.207 320.657 394.723 311.094 391.981 300.194C389.307 289.294 389.34 278.46 392.082 267.694C394.824 256.86 400.274 247.431 408.432 239.407C416.791 231.181 426.321 225.731 437.02 223.056C447.787 220.315 458.52 220.315 469.219 223.056C479.986 225.798 489.549 231.248 497.908 239.407L511.55 252.647L525.192 239.407C533.618 231.248 543.181 225.798 553.88 223.056C564.58 220.315 575.279 220.315 585.979 223.056C596.746 225.731 606.308 231.181 614.667 239.407C622.826 247.431 628.276 256.86 631.018 267.694C633.76 278.46 633.76 289.294 631.018 300.194C628.343 311.094 622.893 320.657 614.667 328.882L511.55 432Z" fill="#FFA6EB"/>
</g>
<defs>
<clipPath id="clip0_13_132">
<rect width="1024" height="640" fill="white"/>
</clipPath>
</defs>
</svg>
