<svg width="1024" height="640" viewBox="0 0 1024 640" fill="none" xmlns="http://www.w3.org/2000/svg">
<g clip-path="url(#clip0_2_34)">
<rect width="1024" height="640" fill="white"/>
<rect width="1024" height="288" transform="matrix(1 0 0 -1 0 640)" fill="#FFAA7A"/>
<rect width="1024" height="288" transform="matrix(1 0 0 -1 0 288)" fill="#88BB8A"/>
<path d="M512.49 477.255L489.863 454.627L386.745 351.51C374.579 339.344 366.092 324.711 361.888 308L361.866 307.91L361.844 307.82C357.932 291.88 357.96 275.723 362.006 259.819C366.223 243.176 374.707 228.62 386.928 216.598C386.929 216.597 386.93 216.596 386.931 216.595L512.49 477.255ZM512.49 477.255L535.117 454.627M512.49 477.255L535.117 454.627M535.117 454.627L638.235 351.51C650.415 339.33 658.885 324.665 663.014 307.911C667.01 291.963 667.03 275.778 662.98 259.843C662.98 259.841 662.979 259.84 662.979 259.838C658.764 243.188 650.278 228.624 638.052 216.598C638.05 216.596 638.049 216.595 638.047 216.593C625.877 204.619 611.347 196.175 594.75 192.029C578.875 187.981 562.751 187.99 546.877 192.058C534.186 195.31 522.691 201.05 512.508 208.927M535.117 454.627L512.508 208.927M512.508 208.927C502.322 201.026 490.802 195.295 478.081 192.052C462.183 187.982 446.034 187.991 430.131 192.029C413.567 196.183 399.078 204.644 386.933 216.593L512.508 208.927Z" fill="#FFA6EB" stroke="white" stroke-width="64"/>
</g>
<defs>
<clipPath id="clip0_2_34">
<rect width="1024" height="640" fill="white"/>
</clipPath>
</defs>
</svg>
