<svg width="640" height="640" viewBox="0 0 640 640" fill="none" xmlns="http://www.w3.org/2000/svg">
<g clip-path="url(#clip0_13_125)">
<rect width="640" height="640" rx="320" fill="white"/>
<rect width="640" height="288" transform="matrix(1 0 0 -1 0 640)" fill="#FFAA7A"/>
<rect width="640" height="288" transform="matrix(1 0 0 -1 0 288)" fill="#88BB8A"/>
<path d="M320.49 432L217.373 328.882C209.147 320.657 203.664 311.094 200.922 300.194C198.247 289.294 198.28 278.46 201.022 267.694C203.764 256.86 209.214 247.431 217.373 239.407C225.732 231.181 235.261 225.731 245.961 223.056C256.727 220.315 267.46 220.315 278.16 223.056C288.926 225.798 298.489 231.248 306.848 239.407L320.49 252.647L334.132 239.407C342.558 231.248 352.121 225.798 362.821 223.056C373.52 220.315 384.22 220.315 394.919 223.056C405.686 225.731 415.249 231.181 423.608 239.407C431.766 247.431 437.216 256.86 439.958 267.694C442.7 278.46 442.7 289.294 439.958 300.194C437.283 311.094 431.833 320.657 423.608 328.882L320.49 432Z" stroke="white" stroke-width="128"/>
<path d="M320.49 432L217.373 328.882C209.147 320.657 203.664 311.094 200.922 300.194C198.247 289.294 198.28 278.46 201.022 267.694C203.764 256.86 209.214 247.431 217.373 239.407C225.732 231.181 235.261 225.731 245.961 223.056C256.727 220.315 267.46 220.315 278.16 223.056C288.926 225.798 298.489 231.248 306.848 239.407L320.49 252.647L334.132 239.407C342.558 231.248 352.121 225.798 362.821 223.056C373.52 220.315 384.22 220.315 394.919 223.056C405.686 225.731 415.249 231.181 423.608 239.407C431.766 247.431 437.216 256.86 439.958 267.694C442.7 278.46 442.7 289.294 439.958 300.194C437.283 311.094 431.833 320.657 423.608 328.882L320.49 432Z" fill="#FFA6EB"/>
</g>
<defs>
<clipPath id="clip0_13_125">
<rect width="640" height="640" rx="320" fill="white"/>
</clipPath>
</defs>
</svg>
