<?xml version="1.0" encoding="UTF-8"?>
<svg xmlns="http://www.w3.org/2000/svg" viewBox="0 0 2480 1440.77">
  <defs>
    <style>
      .cls-1 {
        fill: #fbb03c;
      }

      .cls-1, .cls-2, .cls-3 {
        stroke-width: 0px;
      }

      .cls-2 {
        fill: #92278f;
      }

      .cls-3 {
        fill: #fff;
      }
    </style>
  </defs>
  <g id="Layer_1" data-name="Layer 1">
    <rect class="cls-2" x="0" y=".19" width="2480" height="1440.38"/>
  </g>
  <g id="Layer_3" data-name="Layer 3">
    <rect class="cls-3" x="-318.03" y="318.03" width="1440.77" height="804.71" transform="translate(-318.03 1122.74) rotate(-90)"/>
    <path class="cls-1" d="M1490.98,871.57l-45.42,48.78-60.95-53.52c-62.4,55.81-156.57,78.27-265.51,27.8l-81.87,95.65-48.21-36.71,111.72-133.91c93.37,39.17,172.61,31.17,226.37-3.36l-209.02-183.6-54.23,72.45-74.84-59.74,127.79-146.29,99.92,1.68-53.46,71.44,213.19,194.73c54.53-85.5,27.33-222.47-133.41-316.88,227.82,53.02,260.6,241.94,185.32,364.28l62.6,57.19Z"/>
    <rect class="cls-3" x="1357.26" y="318.03" width="1440.77" height="804.71" transform="translate(1357.26 2798.03) rotate(-90)"/>
  </g>
</svg>