<?xml version="1.0" encoding="UTF-8"?>
<svg xmlns="http://www.w3.org/2000/svg" viewBox="0 0 2078.44 716.18">
  <defs>
    <style>
      .cls-1 {
        fill: #fbb03c;
      }

      .cls-1, .cls-2 {
        stroke-width: 0px;
      }

      .cls-2 {
        fill: #ec008c;
      }

      .cls-3 {
        fill: #92278f;
        stroke: #231f20;
        stroke-miterlimit: 10;
        stroke-width: 44px;
      }
    </style>
  </defs>
  <g id="Layer_2" data-name="Layer 2">
    <circle class="cls-3" cx="358.09" cy="358.09" r="336.09"/>
    <g>
      <path class="cls-2" d="M766.52,323.54v-63.28h-15.82v-15.82h55.37v15.82h-15.82v63.28h-23.73Z"/>
      <path class="cls-2" d="M854.66,323.54v-31.64h-7.91v31.64h-23.73v-79.1h23.73v31.64h7.91v-31.64h23.73v79.1h-23.73Z"/>
      <path class="cls-2" d="M895.34,323.54v-79.1h55.37v15.82h-31.64v15.82h23.73v15.82h-23.73v15.82h31.64v15.82h-55.37Z"/>
      <path class="cls-2" d="M1011.73,323.54v-63.28h-15.82v-15.82h55.37v15.82h-15.82v63.28h-23.73Z"/>
      <path class="cls-2" d="M1068.23,323.54v-79.1h55.37v79.1h-55.37ZM1099.87,260.26h-7.91v47.46h7.91v-47.46Z"/>
      <path class="cls-2" d="M1172.19,323.54v-31.64h-7.91v31.64h-23.73v-79.1h55.37v79.1h-23.73ZM1172.19,260.26h-7.91v15.82h7.91v-15.82Z"/>
      <path class="cls-2" d="M1212.87,323.54v-15.82h31.64v-15.82h-31.64v-47.46h55.37v15.82h-31.64v15.82h31.64v47.46h-55.37Z"/>
      <path class="cls-2" d="M1301.01,323.54v-63.28h-15.82v-15.82h55.37v15.82h-15.82v63.28h-23.73Z"/>
      <path class="cls-2" d="M1357.51,323.54v-79.1h55.37v15.82h-31.64v15.82h23.73v15.82h-23.73v15.82h31.64v15.82h-55.37Z"/>
      <path class="cls-2" d="M1461.47,323.54v-31.64h-7.91v31.64h-23.73v-79.1h55.37v31.64h-7.91v7.91h7.91v39.55h-23.73ZM1461.47,260.26h-7.91v15.82h7.91v-15.82Z"/>
      <path class="cls-2" d="M1502.15,323.54v-79.1h23.73v79.1h-23.73Z"/>
      <path class="cls-2" d="M1542.83,323.54v-79.1h47.46v15.82h-23.73v47.46h23.73v15.82h-47.46Z"/>
      <path class="cls-2" d="M1635.49,323.54v-79.1h47.46v15.82h-23.73v47.46h23.73v15.82h-47.46Z"/>
      <path class="cls-2" d="M1699.9,323.54v-79.1h55.37v79.1h-55.37ZM1731.54,260.26h-7.91v47.46h7.91v-47.46Z"/>
      <path class="cls-2" d="M1772.22,323.54v-79.1h23.73v63.28h23.73v15.82h-47.46Z"/>
      <path class="cls-2" d="M1836.62,323.54v-79.1h55.37v79.1h-55.37ZM1868.26,260.26h-7.91v47.46h7.91v-47.46Z"/>
      <path class="cls-2" d="M1948.49,323.54v-15.82h-7.91v-15.82h-7.91v31.64h-23.73v-79.1h23.73v15.82h7.91v15.82h7.91v-31.64h23.73v79.1h-23.73Z"/>
      <path class="cls-2" d="M2004.99,323.54v-39.55h-15.82v-39.55h23.73v23.73h7.91v-23.73h23.73v39.55h-15.82v39.55h-23.73Z"/>
      <path class="cls-2" d="M750.7,459.14v-79.1h55.37v79.1h-55.37ZM782.34,395.86h-7.91v47.46h7.91v-47.46Z"/>
      <path class="cls-2" d="M823.02,459.14v-79.1h55.37v15.82h-31.64v15.82h23.73v15.82h-23.73v31.64h-23.73Z"/>
      <path class="cls-2" d="M923.59,459.14v-79.1h55.37v15.82h-31.64v47.46h7.91v-31.64h23.73v47.46h-55.37Z"/>
      <path class="cls-2" d="M1027.55,459.14v-31.64h-7.91v31.64h-23.73v-79.1h55.37v31.64h-7.91v7.91h7.91v39.55h-23.73ZM1027.55,395.86h-7.91v15.82h7.91v-15.82Z"/>
      <path class="cls-2" d="M1099.87,459.14v-31.64h-7.91v31.64h-23.73v-79.1h55.37v79.1h-23.73ZM1099.87,395.86h-7.91v15.82h7.91v-15.82Z"/>
      <path class="cls-2" d="M1140.55,459.14v-79.1h55.37v47.46h-31.64v31.64h-23.73ZM1172.19,395.86h-7.91v15.82h7.91v-15.82Z"/>
      <path class="cls-2" d="M1212.87,459.14v-79.1h55.37v15.82h-31.64v15.82h23.73v15.82h-23.73v15.82h31.64v15.82h-55.37Z"/>
      <path class="cls-2" d="M1301.01,459.14v-63.28h-15.82v-15.82h55.37v15.82h-15.82v63.28h-23.73Z"/>
      <path class="cls-2" d="M1357.51,459.14v-79.1h55.37v79.1h-55.37ZM1389.15,395.86h-7.91v47.46h7.91v-47.46Z"/>
      <path class="cls-2" d="M1429.83,459.14v-79.1h55.37v47.46h-31.64v31.64h-23.73ZM1461.47,395.86h-7.91v15.82h7.91v-15.82Z"/>
      <path class="cls-2" d="M1502.15,459.14v-79.1h23.73v79.1h-23.73Z"/>
      <path class="cls-2" d="M1574.47,459.14v-31.64h-7.91v31.64h-23.73v-79.1h55.37v79.1h-23.73ZM1574.47,395.86h-7.91v15.82h7.91v-15.82Z"/>
    </g>
  </g>
  <g id="Layer_3" data-name="Layer 3">
    <path class="cls-1" d="M594.67,467.69l-39.46,42.38-52.95-46.5c-54.21,48.49-136.02,68-230.66,24.16l-71.12,83.1-41.88-31.9,97.06-116.34c81.11,34.03,149.95,27.08,196.66-2.92l-181.59-159.51-47.11,62.94-65.02-51.9,111.02-127.08,86.81,1.46-46.44,62.07,185.21,169.17c47.38-74.28,23.75-193.27-115.9-275.29,197.91,46.06,226.39,210.18,161,316.47l54.39,49.68Z"/>
  </g>
</svg>