<?xml version="1.0" encoding="UTF-8"?>
<svg id="Layer_3" data-name="Layer 3" xmlns="http://www.w3.org/2000/svg" viewBox="0 0 2411.54 870.57">
  <defs>
    <style>
      .cls-1 {
        fill: #fbb03c;
      }

      .cls-1, .cls-2, .cls-3, .cls-4 {
        stroke-width: 0px;
      }

      .cls-2 {
        fill: #ed1b32;
      }

      .cls-3 {
        fill: #ee2a24;
      }

      .cls-4 {
        fill: #fff;
      }
    </style>
  </defs>
  <g>
    <path class="cls-1" d="M435.28,821.59v48.98C194.68,870.57,0,675.88,0,435.28h48.97c0,213.53,172.79,386.31,386.31,386.31Z"/>
    <path class="cls-2" d="M870.56,424.83c0,246.38-194.69,445.74-435.28,445.74v-48.98c213.52,0,386.3-177.45,386.3-396.76h48.98Z"/>
    <path class="cls-2" d="M435.28,0v48.98c-213.52,0-386.31,172.78-386.31,386.3H0C0,194.69,194.68,0,435.28,0Z"/>
    <path class="cls-1" d="M870.56,424.83h-48.98c0-207.75-172.78-375.85-386.3-375.85V0c240.59,0,435.28,190.01,435.28,424.83Z"/>
    <circle class="cls-4" cx="435.28" cy="435.28" r="386.31"/>
    <path class="cls-1" d="M671.05,567.03l-42.67,45.83-57.26-50.28c-58.62,52.43-147.09,73.53-249.42,26.12l-76.91,89.86-45.29-34.49,104.95-125.8c87.71,36.8,162.15,29.28,212.65-3.16l-196.36-172.48-50.94,68.06-70.31-56.12,120.05-137.42,93.87,1.58-50.22,67.12,200.27,182.93c51.23-80.32,25.68-208.99-125.33-297.68,214.01,49.81,244.81,227.28,174.09,342.21l58.81,53.72Z"/>
  </g>
  <g>
    <path class="cls-3" d="M928.63,383.58v-101.5h60.9v10.15h10.15v81.2h-10.15v10.15h-60.9ZM969.23,302.38h-10.15v60.9h10.15v-60.9Z"/>
    <path class="cls-3" d="M1057.83,383.58v-40.6h-10.15v40.6h-30.45v-101.5h71.05v101.5h-30.45ZM1057.83,302.38h-10.15v20.3h10.15v-20.3Z"/>
    <path class="cls-3" d="M1105.82,383.58v-20.3h40.6v-20.3h-40.6v-60.9h71.05v20.3h-40.6v20.3h40.6v60.9h-71.05Z"/>
    <path class="cls-3" d="M948.93,571.58v-81.2h-20.3v-20.3h71.05v20.3h-20.3v81.2h-30.45Z"/>
    <path class="cls-3" d="M1017.23,571.58v-101.5h71.05v101.5h-71.05ZM1057.83,490.38h-10.15v60.9h10.15v-60.9Z"/>
    <path class="cls-3" d="M1146.42,571.58v-40.6h-10.15v40.6h-30.45v-101.5h71.05v101.5h-30.45ZM1146.42,490.38h-10.15v20.3h10.15v-20.3Z"/>
    <path class="cls-3" d="M1194.42,571.58v-20.3h40.6v-20.3h-40.6v-60.9h71.05v20.3h-40.6v20.3h40.6v60.9h-71.05Z"/>
    <path class="cls-3" d="M1303.31,571.58v-81.2h-20.3v-20.3h71.05v20.3h-20.3v81.2h-30.45Z"/>
    <path class="cls-3" d="M1371.6,571.58v-101.5h71.05v20.3h-40.6v20.3h30.45v20.3h-30.45v20.3h40.6v20.3h-71.05Z"/>
    <path class="cls-3" d="M1500.8,571.58v-40.6h-10.15v40.6h-30.45v-101.5h71.05v40.6h-10.15v10.15h10.15v50.75h-30.45ZM1500.8,490.38h-10.15v20.3h10.15v-20.3Z"/>
    <path class="cls-3" d="M1548.79,530.98v-20.3h50.75v20.3h-50.75Z"/>
    <path class="cls-3" d="M1657.69,571.58v-30.45h-10.15v30.45h-30.45v-101.5h30.45v30.45h10.15v-30.45h30.45v40.6h-20.3v10.15h20.3v50.75h-30.45Z"/>
    <path class="cls-3" d="M1705.68,571.58v-101.5h71.05v101.5h-71.05ZM1715.83,462.83v-20.3h20.3v20.3h-20.3ZM1746.28,490.38h-10.15v60.9h10.15v-60.9ZM1746.28,462.83v-20.3h20.3v20.3h-20.3Z"/>
    <path class="cls-3" d="M1845.03,571.58v-20.3h-10.15v-20.3h-10.15v40.6h-30.45v-101.5h30.45v20.3h10.15v20.3h10.15v-40.6h30.45v101.5h-30.45Z"/>
    <path class="cls-3" d="M1893.02,571.58v-101.5h30.45v101.5h-30.45Z"/>
    <path class="cls-3" d="M1941.01,571.58v-101.5h71.05v20.3h-40.6v60.9h10.15v-40.6h30.45v60.9h-71.05Z"/>
    <path class="cls-3" d="M2070.21,571.58v-40.6h-10.15v40.6h-30.45v-101.5h71.05v40.6h-10.15v10.15h10.15v50.75h-30.45ZM2070.21,490.38h-10.15v20.3h10.15v-20.3Z"/>
    <path class="cls-3" d="M2118.2,571.58v-101.5h71.05v20.3h-40.6v20.3h30.45v20.3h-30.45v20.3h40.6v20.3h-71.05Z"/>
    <path class="cls-3" d="M2206.8,571.58v-101.5h30.45v101.5h-30.45Z"/>
    <path class="cls-3" d="M2254.79,571.58v-101.5h60.9v20.3h-30.45v60.9h30.45v20.3h-60.9Z"/>
    <path class="cls-3" d="M2373.84,571.58v-40.6h-10.15v40.6h-30.45v-101.5h30.45v40.6h10.15v-40.6h30.45v101.5h-30.45Z"/>
  </g>
</svg>