<?xml version="1.0" encoding="UTF-8"?>
<svg id="Layer_3" data-name="Layer 3" xmlns="http://www.w3.org/2000/svg" viewBox="0 0 2370.43 870.57">
  <defs>
    <style>
      .cls-1 {
        fill: #fbb03c;
      }

      .cls-1, .cls-2, .cls-3, .cls-4 {
        stroke-width: 0px;
      }

      .cls-2 {
        fill: #ed1b32;
      }

      .cls-3 {
        fill: #231f20;
      }

      .cls-4 {
        fill: #fff;
      }
    </style>
  </defs>
  <g>
    <path class="cls-1" d="M435.28,821.59v48.98C194.68,870.57,0,675.88,0,435.28h48.97c0,213.53,172.79,386.31,386.31,386.31Z"/>
    <path class="cls-2" d="M870.56,424.83c0,246.38-194.69,445.74-435.28,445.74v-48.98c213.52,0,386.3-177.45,386.3-396.76h48.98Z"/>
    <path class="cls-2" d="M435.28,0v48.98c-213.52,0-386.31,172.78-386.31,386.3H0C0,194.69,194.68,0,435.28,0Z"/>
    <path class="cls-1" d="M870.56,424.83h-48.98c0-207.75-172.78-375.85-386.3-375.85V0c240.59,0,435.28,190.01,435.28,424.83Z"/>
    <circle class="cls-4" cx="435.28" cy="435.28" r="386.31"/>
    <path class="cls-1" d="M671.05,567.03l-42.67,45.83-57.26-50.28c-58.62,52.43-147.09,73.53-249.42,26.12l-76.91,89.86-45.29-34.49,104.95-125.8c87.71,36.8,162.15,29.28,212.65-3.16l-196.36-172.48-50.94,68.06-70.31-56.12,120.05-137.42,93.87,1.58-50.22,67.12,200.27,182.93c51.23-80.32,25.68-208.99-125.33-297.68,214.01,49.81,244.81,227.28,174.09,342.21l58.81,53.72Z"/>
  </g>
  <g>
    <path class="cls-3" d="M928.43,383.58v-98.7h59.22v9.87h9.87v78.96h-9.87v9.87h-59.22ZM967.91,304.62h-9.87v59.22h9.87v-59.22Z"/>
    <path class="cls-3" d="M1054.06,383.58v-39.48h-9.87v39.48h-29.61v-98.7h69.09v98.7h-29.61ZM1054.06,304.62h-9.87v19.74h9.87v-19.74Z"/>
    <path class="cls-3" d="M1100.73,383.58v-19.74h39.48v-19.74h-39.48v-59.22h69.09v19.74h-39.48v19.74h39.48v59.22h-69.09Z"/>
    <path class="cls-3" d="M948.17,571.58v-78.96h-19.74v-19.74h69.09v19.74h-19.74v78.96h-29.61Z"/>
    <path class="cls-3" d="M1014.58,571.58v-98.7h69.09v98.7h-69.09ZM1054.06,492.62h-9.87v59.22h9.87v-59.22Z"/>
    <path class="cls-3" d="M1140.21,571.58v-39.48h-9.87v39.48h-29.61v-98.7h69.09v98.7h-29.61ZM1140.21,492.62h-9.87v19.74h9.87v-19.74Z"/>
    <path class="cls-3" d="M1186.88,571.58v-19.74h39.48v-19.74h-39.48v-59.22h69.09v19.74h-39.48v19.74h39.48v59.22h-69.09Z"/>
    <path class="cls-3" d="M1292.77,571.58v-78.96h-19.74v-19.74h69.09v19.74h-19.74v78.96h-29.61Z"/>
    <path class="cls-3" d="M1359.18,571.58v-98.7h69.09v19.74h-39.48v19.74h29.61v19.74h-29.61v19.74h39.48v19.74h-69.09Z"/>
    <path class="cls-3" d="M1484.82,571.58v-39.48h-9.87v39.48h-29.61v-98.7h69.09v39.48h-9.87v9.87h9.87v49.35h-29.61ZM1484.82,492.62h-9.87v19.74h9.87v-19.74Z"/>
    <path class="cls-3" d="M1531.49,532.1v-19.74h49.35v19.74h-49.35Z"/>
    <path class="cls-3" d="M1637.38,571.58v-29.61h-9.87v29.61h-29.61v-98.7h29.61v29.61h9.87v-29.61h29.61v39.48h-19.74v9.87h19.74v49.35h-29.61Z"/>
    <path class="cls-3" d="M1684.05,571.58v-98.7h69.09v98.7h-69.09ZM1693.92,465.83v-19.74h19.74v19.74h-19.74ZM1723.53,492.62h-9.87v59.22h9.87v-59.22ZM1723.53,465.83v-19.74h19.74v19.74h-19.74Z"/>
    <path class="cls-3" d="M1819.55,571.58v-19.74h-9.87v-19.74h-9.87v39.48h-29.61v-98.7h29.61v19.74h9.87v19.74h9.87v-39.48h29.61v98.7h-29.61Z"/>
    <path class="cls-3" d="M1866.22,571.58v-98.7h29.61v98.7h-29.61Z"/>
    <path class="cls-3" d="M1912.89,571.58v-98.7h69.09v19.74h-39.48v59.22h9.87v-39.48h29.61v59.22h-69.09Z"/>
    <path class="cls-3" d="M2038.52,571.58v-39.48h-9.87v39.48h-29.61v-98.7h69.09v39.48h-9.87v9.87h9.87v49.35h-29.61ZM2038.52,492.62h-9.87v19.74h9.87v-19.74Z"/>
    <path class="cls-3" d="M2085.19,571.58v-98.7h69.09v19.74h-39.48v19.74h29.61v19.74h-29.61v19.74h39.48v19.74h-69.09Z"/>
    <path class="cls-3" d="M2171.34,571.58v-98.7h29.61v98.7h-29.61Z"/>
    <path class="cls-3" d="M2218.01,571.58v-98.7h59.22v19.74h-29.61v59.22h29.61v19.74h-59.22Z"/>
    <path class="cls-3" d="M2333.77,571.58v-39.48h-9.87v39.48h-29.61v-98.7h29.61v39.48h9.87v-39.48h29.61v98.7h-29.61Z"/>
  </g>
</svg>