<?xml version="1.0" encoding="UTF-8"?>
<svg xmlns="http://www.w3.org/2000/svg" viewBox="0 0 2480 1440.77">
  <defs>
    <style>
      .cls-1 {
        fill: #fbb03c;
      }

      .cls-1, .cls-2, .cls-3, .cls-4, .cls-5 {
        stroke-width: 0px;
      }

      .cls-2 {
        fill: #f9cf0a;
      }

      .cls-3 {
        fill: #231f20;
      }

      .cls-4 {
        fill: #fff;
      }

      .cls-5 {
        fill: #e62625;
      }
    </style>
  </defs>
  <g id="Layer_1" data-name="Layer 1">
    <rect class="cls-3" y=".38" width="2480" height="1440"/>
  </g>
  <g id="Layer_2" data-name="Layer 2">
    <rect class="cls-5" y="437.1" width="2480" height="273.53"/>
    <rect class="cls-2" x="-101.74" y="583.62" width="1440" height="273.53" transform="translate(1338.64 102.13) rotate(90)"/>
    <path class="cls-5" d="M393.25,343.22c-28.42,28.05-51.44,61.54-61.56,93.88h-36.44c12.33-43.36,40.05-85.55,74.13-119.28l23.87,25.4Z"/>
    <path class="cls-2" d="M481.49,249.34v34.66c-30.02,11.27-61.52,32.84-88.24,59.22l-23.87-25.4c34.04-33.68,74.42-58.94,112.11-68.48Z"/>
    <path class="cls-5" d="M843.49,343.22c28.42,28.05,51.44,61.54,61.56,93.88h36.44c-12.33-43.36-40.05-85.55-74.13-119.28l-23.87,25.4Z"/>
    <path class="cls-2" d="M755.25,249.34v34.66c30.02,11.27,61.52,32.84,88.24,59.22l23.87-25.4c-34.04-33.68-74.42-58.94-112.11-68.48Z"/>
    <path class="cls-5" d="M393.14,804.22c-28.42-28.05-51.44-61.54-61.56-93.88h-36.44c12.33,43.36,40.05,85.55,74.13,119.28l23.87-25.4Z"/>
    <path class="cls-2" d="M481.38,898.1v-34.66c-30.02-11.27-61.52-32.84-88.24-59.22l-23.87,25.4c34.04,33.68,74.42,58.94,112.11,68.48Z"/>
    <path class="cls-5" d="M843.38,804.22c28.42-28.05,51.44-61.54,61.56-93.88h36.44c-12.33,43.36-40.05,85.55-74.13,119.28l-23.87-25.4Z"/>
    <path class="cls-2" d="M755.14,898.1v-34.66c30.02-11.27,61.52-32.84,88.24-59.22l23.87,25.4c-34.04,33.68-74.42,58.94-112.11,68.48Z"/>
  </g>
  <g id="Layer_3" data-name="Layer 3">
    <rect class="cls-4" y="473.56" width="2480" height="200.7"/>
    <rect class="cls-4" x="-102.13" y="620.03" width="1440.77" height="200.7" transform="translate(-102.13 1338.64) rotate(-90)"/>
    <circle class="cls-4" cx="618.26" cy="574.25" r="337.82"/>
    <path class="cls-1" d="M824.44,689.46l-37.31,40.08-50.07-43.97c-51.26,45.85-128.62,64.3-218.11,22.84l-67.25,78.58-39.61-30.16,91.78-110.01c76.7,32.18,141.8,25.6,185.96-2.76l-171.71-150.83-44.55,59.52-61.48-49.08,104.98-120.17,82.08,1.38-43.91,58.69,175.13,159.97c44.8-70.24,22.45-182.76-109.59-260.31,187.15,43.56,214.08,198.75,152.24,299.26l51.43,46.98Z"/>
  </g>
</svg>