<?xml version="1.0" encoding="UTF-8" standalone="no"?>
<!-- Created with Inkscape (http://www.inkscape.org/) -->

<svg
   width="1800mm"
   height="720mm"
   viewBox="0 0 1800 720"
   version="1.1"
   id="svg1"
   xmlns="http://www.w3.org/2000/svg"
   xmlns:svg="http://www.w3.org/2000/svg">
  <defs
     id="defs1" />
  <g
     id="layer1"
     transform="translate(180.00001)">
    <path
       id="path3"
       style="fill:#ffffff;fill-opacity:1;stroke:none;stroke-width:10;stroke-linecap:round;stroke-linejoin:round;stroke-dasharray:none;stroke-opacity:1;paint-order:stroke fill markers"
       d="M 433.90878,613.90982 A 359.9996,359.99973 0 0 0 539.99843,360.00025 359.9996,359.99973 0 0 0 179.99922,5.06e-4 359.9996,359.99973 0 0 0 -73.91037,106.0907 Z" />
    <path
       id="path9"
       style="fill:#4682b4;fill-opacity:1;stroke:none;stroke-width:10;stroke-linecap:round;stroke-linejoin:round;stroke-dasharray:none;stroke-opacity:1;paint-order:stroke fill markers"
       d="M -73.91036,106.09069 A 359.9996,359.99973 0 0 0 -180.00001,360.00026 359.9996,359.99973 0 0 0 179.9992,719.99999 359.9996,359.99973 0 0 0 433.90877,613.90982 Z" />
    <path
       id="path1"
       style="fill:#fefefe;fill-opacity:1;stroke:none;stroke-width:6.91363;stroke-linecap:round;stroke-linejoin:round;stroke-dasharray:none;stroke-opacity:1;paint-order:stroke fill markers"
       d="m -49.047193,130.95373 -47.504337,47.50364 54.270357,54.27108 A 256.73947,256.73947 0 0 0 -67.46101,292.8188 h -76.46055 v 134.36223 h 76.46055 a 256.73947,256.73947 0 0 0 25.179837,60.09034 l -54.270357,54.27108 95.007977,95.00798 54.271077,-54.27036 a 256.73947,256.73947 0 0 0 60.090346,25.17983 v 76.46056 H 247.18011 V 607.4599 a 256.73947,256.73947 0 0 0 60.09034,-25.17983 l 54.27108,54.27036 47.50436,-47.50362 z" />
    <path
       id="path8"
       style="fill:#4682b4;fill-opacity:1;stroke:none;stroke-width:6.91363;stroke-linecap:round;stroke-linejoin:round;stroke-dasharray:none;stroke-opacity:1;paint-order:stroke fill markers"
       d="m 409.04589,589.04681 47.50434,-47.50364 -54.27036,-54.27108 a 256.73947,256.73947 0 0 0 25.17984,-60.09035 h 76.46055 V 292.81951 H 427.45971 A 256.73947,256.73947 0 0 0 402.27987,232.72917 L 456.55023,178.45809 361.54225,83.450106 307.27117,137.72047 A 256.73947,256.73947 0 0 0 247.18082,112.54064 V 36.080076 H 112.81858 V 112.54064 A 256.73947,256.73947 0 0 0 52.728244,137.72047 L -1.542833,83.450106 -49.047193,130.95373 Z" />
    <circle
       style="fill:#ffffff;fill-opacity:1;stroke:none;stroke-width:6.91361;stroke-linecap:round;stroke-linejoin:round;stroke-dasharray:none;stroke-opacity:1;paint-order:stroke fill markers"
       id="path10"
       cx="179.99901"
       cy="359.99991"
       r="181.26341" />
    <text
       xml:space="preserve"
       style="font-size:2687.88px;font-family:'Noto Mono';-inkscape-font-specification:'Noto Mono, Normal';fill:#f8f8f8;fill-opacity:1;fill-rule:evenodd;stroke:none;stroke-width:1000;stroke-linecap:round;stroke-linejoin:round;stroke-dasharray:none;stroke-opacity:1;paint-order:stroke fill markers"
       x="539.99841"
       y="360.00024"
       id="text3"><tspan
         id="tspan3"
         style="stroke-width:1000"
         x="539.99841"
         y="360.00024" /></text>
    <text
       xml:space="preserve"
       style="font-size:176.389px;font-family:'Noto Mono';-inkscape-font-specification:'Noto Mono, Normal';fill:#000000;fill-opacity:1;fill-rule:evenodd;stroke:none;stroke-width:1000;stroke-linecap:round;stroke-linejoin:round;stroke-dasharray:none;stroke-opacity:1;paint-order:stroke fill markers"
       x="539.99841"
       y="360.00024"
       id="text4"><tspan
         id="tspan4"
         style="fill:#000000;fill-opacity:1;stroke-width:1000"
         x="539.99841"
         y="360.00024" /></text>
    <text
       xml:space="preserve"
       style="font-style:normal;font-variant:normal;font-weight:normal;font-stretch:normal;font-size:216.184px;font-family:'Noto Mono';-inkscape-font-specification:'Noto Mono, Normal';font-variant-ligatures:normal;font-variant-caps:normal;font-variant-numeric:normal;font-variant-east-asian:normal;fill:#4682b4;fill-opacity:1;fill-rule:evenodd;stroke:#4682b4;stroke-width:11.7834;stroke-linecap:round;stroke-linejoin:round;stroke-dasharray:none;stroke-opacity:1;paint-order:stroke fill markers"
       x="635.22467"
       y="432.97168"
       id="text5"
       transform="scale(0.99376246,1.0062767)"><tspan
         id="tspan6"
         x="635.22467"
         y="432.97168"
         style="stroke-width:11.7834">Omicron.</tspan></text>
  </g>
</svg>
