<svg width="780" height="300" viewBox="0 0 780 300" fill="none" xmlns="http://www.w3.org/2000/svg">
<g clip-path="url(#clip0_51_31)">
<rect x="25" y="25" width="250" height="27.7778" fill="#D12631"/>
<rect x="25" y="52.7773" width="250" height="27.7778" fill="#E66860"/>
<rect x="25" y="80.5557" width="250" height="27.7778" fill="#F59C92"/>
<rect x="25" y="108.333" width="250" height="27.7778" fill="#FECEC7"/>
<rect x="25" y="136.111" width="250" height="27.7778" fill="white"/>
<rect x="25" y="163.889" width="250" height="27.7778" fill="#CEDAD0"/>
<rect x="25" y="191.667" width="250" height="27.7778" fill="#9EB5A2"/>
<rect x="25" y="219.444" width="250" height="27.7778" fill="#709176"/>
<rect x="25" y="247.223" width="250" height="27.7778" fill="#436F4D"/>
</g>
<path d="M341 121V105H345V121H341ZM341 101V97H345V101H341ZM325 121V93H341V97H329V101H341V105H329V121H325ZM353 121V117H369V121H353ZM349 117V105H353V109H365V105H369V113H353V117H349ZM353 105V101H365V105H353ZM389 113V105H393V113H389ZM373 125V101H377V105H381V109H377V113H389V117H377V125H373ZM381 105V101H389V105H381ZM397 117V101H401V117H397ZM401 121V117H413V101H417V121H401ZM437 117V105H441V117H437ZM429 105V101H437V105H429ZM421 121V93H425V105H429V109H425V117H437V121H421ZM449 121V117H453V121H449ZM445 117V93H449V117H445ZM457 121V101H461V121H457ZM457 97V93H461V97H457ZM469 121V117H481V121H469ZM481 117V113H485V117H481ZM465 117V105H469V117H465ZM481 109V105H485V109H481ZM469 105V101H481V105H469ZM501 121V117H513V121H501ZM497 117V105H501V117H497ZM513 117V105H517V117H513ZM501 105V101H513V105H501ZM525 121V105H521V101H525V97H529V101H537V105H529V121H525ZM529 97V93H537V97H529Z" fill="#D12631"/>
<path d="M329.48 197V152.2H365.32V161.16H338.44V170.12H365.32V179.08H338.44V188.04H365.32V197H329.48ZM365.32 170.12V161.16H374.28V170.12H365.32ZM365.32 188.04V179.08H374.28V188.04H365.32ZM383.23 188.04V152.2H392.19V188.04H383.23ZM419.07 188.04V152.2H428.03V188.04H419.07ZM392.19 197V188.04H419.07V197H392.19ZM436.98 197V152.2H472.82V161.16H445.94V188.04H472.82V197H436.98ZM472.82 188.04V161.16H481.78V188.04H472.82ZM499.69 161.16V152.2H526.57V161.16H499.69ZM490.73 197V161.16H499.69V179.08H526.57V161.16H535.53V197H526.57V188.04H499.69V197H490.73ZM544.48 197V152.2H580.32V161.16H553.44V170.12H580.32V179.08H553.44V197H544.48ZM580.32 170.12V161.16H589.28V170.12H580.32ZM598.23 197V152.2H643.03V161.16H607.19V170.12H625.11V179.08H607.19V188.04H643.03V197H598.23ZM660.94 161.16V152.2H696.78V161.16H660.94ZM651.98 170.12V161.16H660.94V170.12H651.98ZM660.94 179.08V170.12H687.82V179.08H660.94ZM687.82 188.04V179.08H696.78V188.04H687.82ZM651.98 197V188.04H687.82V197H651.98ZM705.73 161.16V152.2H750.53V161.16H732.61V197H723.65V161.16H705.73Z" fill="#436F4D"/>
<defs>
<clipPath id="clip0_51_31">
<rect x="25" y="25" width="250" height="250" rx="125" fill="white"/>
</clipPath>
</defs>
</svg>
