<?xml version="1.0" encoding="UTF-8"?>
<svg xmlns="http://www.w3.org/2000/svg" xmlns:xlink="http://www.w3.org/1999/xlink" viewBox="0 0 1832.53 631.21">
  <defs>
    <style>
      .cls-1 {
        clip-path: url(#clippath);
      }

      .cls-2, .cls-3, .cls-4, .cls-5 {
        stroke-width: 0px;
      }

      .cls-2, .cls-6 {
        fill: none;
      }

      .cls-3 {
        fill: #ff0;
      }

      .cls-4 {
        fill: #c1272d;
      }

      .cls-5 {
        fill: #fff;
      }

      .cls-6 {
        stroke: #000;
        stroke-miterlimit: 10;
        stroke-width: 17px;
      }
    </style>
    <clipPath id="clippath">
      <circle class="cls-2" cx="561.01" cy="315.33" r="271.5"/>
    </clipPath>
  </defs>
  <g id="Layer_3" data-name="Layer 3">
    <g>
      <path class="cls-5" d="M855.8,239.27h52.96v5.35h-52.96v-5.35ZM879.6,240.8h5.35v61.37h-5.35v-61.37Z"/>
      <path class="cls-5" d="M930.86,239.27h5.36v62.9h-5.36v-62.9ZM935.19,268h44.29v5.44h-44.29v-5.44ZM978.63,239.27h5.44v62.9h-5.44v-62.9Z"/>
      <path class="cls-5" d="M1012.2,301.23c-.62-.62-.94-1.39-.94-2.29v-56.44c0-.91.31-1.67.94-2.29s1.39-.94,2.29-.94h44.54v5.35h-44.12l1.7-1.7v55.59l-1.7-1.7h44.12v5.35h-44.54c-.91,0-1.67-.31-2.29-.94ZM1015.43,268h41.06v5.44h-41.06v-5.44Z"/>
      <path class="cls-5" d="M1122.79,239.27h5.36v62.9h-5.36v-62.9ZM1129.67,270.46c0-.91.28-1.61.85-2.12l31.79-29.07h7.22l-33.83,31.19,34.6,31.71h-7.4l-32.38-29.58c-.57-.57-.85-1.27-.85-2.12Z"/>
      <path class="cls-5" d="M1193.17,239.27h45.31v5.35h-45.31v-5.35ZM1193.17,296.81h45.31v5.35h-45.31v-5.35ZM1213.14,241.39h5.35v58.82h-5.35v-58.82Z"/>
      <path class="cls-5" d="M1310.21,302.72c-.45-.26-.85-.58-1.19-.98l-42.67-55.85,1.28-.34v56.61h-5.36v-60.77c0-.96.33-1.76.98-2.38.65-.62,1.43-.94,2.34-.94.57,0,1.08.1,1.53.3.45.2.85.52,1.19.98l42.58,56.19-1.27.34v-56.61h5.44v60.52c0,.91-.33,1.69-.98,2.34s-1.46.98-2.42.98c-.51,0-.99-.13-1.45-.38Z"/>
      <path class="cls-5" d="M1353.18,298.68c-4.96-2.95-8.87-6.93-11.73-11.94-2.86-5.01-4.29-10.5-4.29-16.45s1.43-11.38,4.29-16.28c2.86-4.9,6.76-8.77,11.69-11.6,4.93-2.83,10.31-4.25,16.15-4.25,4.76,0,9.25,1.02,13.47,3.06,4.22,2.04,7.83,4.87,10.84,8.5l-3.91,3.57c-2.44-3.06-5.43-5.47-8.97-7.23-3.54-1.76-7.35-2.63-11.43-2.63-4.87,0-9.35,1.19-13.43,3.57s-7.31,5.61-9.69,9.69-3.57,8.61-3.57,13.6,1.19,9.59,3.57,13.81c2.38,4.22,5.61,7.56,9.69,10.03,4.08,2.47,8.56,3.7,13.43,3.7,4.59,0,8.8-.94,12.62-2.81,3.83-1.87,6.93-4.56,9.31-8.07l3.91,1.87.68.77c-2.83,4.31-6.57,7.64-11.22,9.99-4.65,2.35-9.75,3.53-15.3,3.53s-11.15-1.47-16.11-4.42ZM1390.88,273.61h5.35v14.54l-5.35,3.57v-18.1ZM1393.68,288.14h2.55c0,.51-.14.99-.42,1.44l-2.12-1.44Z"/>
      <path class="cls-5" d="M1422.67,301.23c-.62-.62-.94-1.36-.94-2.21v-56.61c0-.85.3-1.59.89-2.21.6-.62,1.35-.94,2.25-.94h19.63c5.78,0,11.11,1.4,15.98,4.21,4.87,2.8,8.74,6.62,11.6,11.43,2.86,4.82,4.29,10.09,4.29,15.81s-1.43,11.08-4.29,15.9c-2.86,4.82-6.73,8.61-11.6,11.39-4.88,2.78-10.2,4.17-15.98,4.17h-19.55c-.91,0-1.67-.31-2.29-.94ZM1425.39,296.81h19.12c4.87,0,9.32-1.15,13.34-3.44s7.2-5.44,9.52-9.44c2.32-4,3.49-8.4,3.49-13.22s-1.16-9.14-3.49-13.13c-2.32-4-5.51-7.15-9.56-9.48-4.05-2.32-8.49-3.48-13.3-3.48h-19.12l1.7-1.7v55.59l-1.7-1.7Z"/>
      <path class="cls-5" d="M1511.96,298.6c-4.96-2.95-8.87-6.93-11.73-11.94-2.86-5.01-4.29-10.47-4.29-16.36s1.43-11.38,4.29-16.28c2.86-4.9,6.76-8.78,11.69-11.65,4.93-2.86,10.31-4.29,16.15-4.29s11.12,1.42,16.02,4.25c4.9,2.83,8.8,6.71,11.69,11.65,2.89,4.93,4.33,10.37,4.33,16.32s-1.43,11.43-4.29,16.45c-2.86,5.02-6.73,8.98-11.6,11.9-4.87,2.92-10.26,4.38-16.15,4.38s-11.15-1.47-16.11-4.42ZM1541.41,294.13c4.02-2.46,7.24-5.79,9.65-9.99,2.41-4.19,3.61-8.81,3.61-13.85s-1.18-9.52-3.53-13.6c-2.35-4.08-5.55-7.32-9.61-9.73-4.05-2.41-8.54-3.61-13.47-3.61s-9.42,1.2-13.47,3.61c-4.05,2.41-7.27,5.65-9.65,9.73-2.38,4.08-3.57,8.61-3.57,13.6s1.19,9.66,3.57,13.85c2.38,4.19,5.61,7.52,9.69,9.99,4.08,2.47,8.56,3.7,13.43,3.7s9.32-1.23,13.35-3.7Z"/>
      <path class="cls-5" d="M1580.6,239.01c.62-.62,1.39-.94,2.29-.94,1.02,0,1.87.45,2.55,1.36l24.74,39.19h-1.7l24.74-39.19c.68-.91,1.56-1.36,2.63-1.36.85,0,1.59.31,2.21.94.62.62.93,1.36.93,2.21v60.94h-5.35v-57.04l1.87.17-26.18,41.65-26.18-41.65,1.87-.17v57.04h-5.36v-60.94c0-.85.31-1.59.94-2.21Z"/>
      <path class="cls-5" d="M1714.51,298.6c-4.96-2.95-8.87-6.93-11.73-11.94-2.86-5.01-4.29-10.47-4.29-16.36s1.43-11.38,4.29-16.28c2.86-4.9,6.76-8.78,11.69-11.65,4.93-2.86,10.31-4.29,16.15-4.29s11.12,1.42,16.02,4.25c4.9,2.83,8.8,6.71,11.69,11.65,2.89,4.93,4.33,10.37,4.33,16.32s-1.43,11.43-4.29,16.45c-2.86,5.02-6.73,8.98-11.6,11.9-4.87,2.92-10.26,4.38-16.15,4.38s-11.15-1.47-16.11-4.42ZM1743.97,294.13c4.02-2.46,7.24-5.79,9.65-9.99,2.41-4.19,3.61-8.81,3.61-13.85s-1.18-9.52-3.53-13.6c-2.35-4.08-5.55-7.32-9.61-9.73-4.05-2.41-8.54-3.61-13.47-3.61s-9.42,1.2-13.47,3.61c-4.05,2.41-7.27,5.65-9.65,9.73-2.38,4.08-3.57,8.61-3.57,13.6s1.19,9.66,3.57,13.85c2.38,4.19,5.61,7.52,9.69,9.99,4.08,2.47,8.56,3.7,13.43,3.7s9.32-1.23,13.35-3.7Z"/>
      <path class="cls-5" d="M1783.15,240.24c.62-.65,1.39-.98,2.29-.98h42.84v5.35h-42.42l1.7-1.7v59.25h-5.36v-59.67c0-.85.31-1.6.94-2.25ZM1786.38,268h39.36v5.44h-39.36v-5.44Z"/>
      <path class="cls-5" d="M859.76,343.52c1.5-1.5,3.3-2.25,5.4-2.25h25.42c4.08,0,7.85,1.01,11.3,3.02,3.46,2.01,6.19,4.75,8.2,8.2,2.01,3.46,3.02,7.23,3.02,11.31s-1.01,7.75-3.02,11.01c-2.01,3.26-4.73,5.81-8.16,7.65-3.43,1.84-7.21,2.76-11.35,2.76h-19.72v-14.2h19.72c1.3,0,2.51-.33,3.61-.98,1.11-.65,1.98-1.53,2.63-2.63.65-1.1.98-2.31.98-3.61s-.33-2.51-.98-3.61c-.65-1.11-1.53-1.98-2.63-2.63-1.1-.65-2.31-.98-3.61-.98h-21.59l3.83-3.83v51.42h-15.3v-55.25c0-2.1.75-3.9,2.25-5.4ZM880.54,381.9l11.31-8.33,21.67,30.6h-17.51l-15.47-22.27Z"/>
      <path class="cls-5" d="M956.32,341.86c1.22-.79,2.59-1.19,4.12-1.19s2.78.4,3.91,1.19c1.13.79,1.98,1.84,2.55,3.15l25.25,59.16h-17l-16.83-39.36h4l-16.83,39.36h-17.08l25.25-59.16c.57-1.3,1.46-2.35,2.68-3.15Z"/>
      <path class="cls-5" d="M1012.97,342.63c1.42-1.42,3.12-2.12,5.1-2.12,2.15,0,4,.85,5.52,2.55l21.85,25.42h-4.76l21.85-25.42c1.53-1.7,3.37-2.55,5.52-2.55,1.98,0,3.68.71,5.1,2.12,1.42,1.42,2.12,3.12,2.12,5.1v56.44h-15.3v-38.59l2.38.85-19.29,22.53-19.3-22.53,2.38-.85v38.59h-15.3v-56.44c0-1.98.71-3.68,2.12-5.1Z"/>
      <path class="cls-5" d="M1099.07,341.27h51v15.3h-51v-15.3ZM1099.07,388.87h51v15.3h-51v-15.3ZM1116.92,345.52h15.3v55.25h-15.3v-55.25Z"/>
      <path class="cls-5" d="M1186.67,400.64c-4.96-2.92-8.9-6.86-11.82-11.82-2.92-4.96-4.38-10.38-4.38-16.28s1.46-11.32,4.38-16.28c2.92-4.96,6.86-8.9,11.82-11.81,4.96-2.92,10.38-4.38,16.28-4.38,4.82,0,9.36.99,13.64,2.97,4.28,1.98,7.92,4.73,10.92,8.25l-11.64,10.03c-1.59-1.87-3.5-3.33-5.74-4.38-2.24-1.05-4.63-1.57-7.18-1.57-3.12,0-5.98.78-8.58,2.34-2.61,1.56-4.69,3.64-6.25,6.25-1.56,2.61-2.34,5.47-2.34,8.58s.78,5.98,2.34,8.58c1.56,2.61,3.64,4.69,6.25,6.25,2.61,1.56,5.47,2.34,8.58,2.34,2.72,0,5.27-.59,7.65-1.79,2.38-1.19,4.36-2.83,5.95-4.93l12.16,9.26c-3,3.97-6.76,7.08-11.26,9.35-4.5,2.27-9.34,3.4-14.49,3.4-5.89,0-11.32-1.46-16.28-4.38Z"/>
      <path class="cls-5" d="M1271.92,341.86c1.22-.79,2.59-1.19,4.12-1.19s2.78.4,3.91,1.19c1.13.79,1.98,1.84,2.55,3.15l25.25,59.16h-17l-16.83-39.36h4l-16.83,39.36h-17.08l25.25-59.16c.57-1.3,1.46-2.35,2.68-3.15Z"/>
    </g>
  </g>
  <g id="Layer_2" data-name="Layer 2">
    <g>
      <circle class="cls-4" cx="564.01" cy="315.33" r="271.5"/>
      <g class="cls-1">
        <g>
          <polygon class="cls-3" points="1122.51 590.61 1121.93 630.92 1082.21 630.92 .88 40.31 .29 0 40.6 0 1122.51 590.61"/>
          <polygon class="cls-3" points="0 590.9 .58 631.21 40.31 631.21 1121.64 40.6 1122.22 .29 1081.91 .29 0 590.9"/>
          <rect class="cls-3" x="536.87" y=".29" width="49.07" height="630.92"/>
          <rect class="cls-3" x="535.11" y="-245.07" width="52.58" height="1121.64" transform="translate(245.65 877.16) rotate(-90)"/>
          <rect class="cls-4" x="585.94" y=".29" width="25.7" height="289.17"/>
          <rect class="cls-4" x="511.16" y=".29" width="25.7" height="289.17"/>
          <rect class="cls-4" x="511.16" y="342.04" width="25.7" height="289.17"/>
          <rect class="cls-4" x="585.94" y="342.04" width="25.7" height="289.17"/>
          <rect class="cls-4" x="834.8" y="93.18" width="25.7" height="523.43" transform="translate(492.76 1202.55) rotate(-90)"/>
          <rect class="cls-4" x="834.8" y="14.9" width="25.7" height="523.43" transform="translate(571.04 1124.27) rotate(-90)"/>
          <rect class="cls-4" x="262.3" y="14.9" width="25.7" height="523.43" transform="translate(-1.46 551.76) rotate(-90)"/>
          <rect class="cls-4" x="262.3" y="93.18" width="25.7" height="523.43" transform="translate(-79.74 630.04) rotate(-90)"/>
        </g>
      </g>
      <circle class="cls-6" cx="564.01" cy="315.33" r="271.5"/>
    </g>
  </g>
</svg>