<?xml version="1.0" encoding="UTF-8" standalone="no"?>
<!DOCTYPE svg PUBLIC "-//W3C//DTD SVG 1.1//EN" "http://www.w3.org/Graphics/SVG/1.1/DTD/svg11.dtd">
<svg width="100%" height="100%" viewBox="0 0 684 145" version="1.1" xmlns="http://www.w3.org/2000/svg" xmlns:xlink="http://www.w3.org/1999/xlink" xml:space="preserve" xmlns:serif="http://www.serif.com/" style="fill-rule:evenodd;clip-rule:evenodd;stroke-linejoin:round;stroke-miterlimit:2;">
    <g transform="matrix(1,0,0,1,-598,-455)">
        <g transform="matrix(1,0,0,1,0,-41.0179)">
            <g transform="matrix(0.113599,0,0,0.113599,540.75,558.743)">
                <path d="M2189.43,576.167L2189.43,720.609L1611.67,720.609L1611.67,-146.04L2189.43,-146.04L2189.43,-1.599L1756.11,-1.599L1756.11,576.167L2189.43,576.167ZM2189.43,-1.599L2333.88,-1.599L2333.88,576.167L2189.43,576.167L2189.43,-1.599ZM3850.51,576.167L3706.07,576.167L3706.07,215.064L3850.51,215.064L3850.51,576.167ZM3850.51,215.064L3850.51,70.622L4139.39,70.622L4139.39,215.064L3850.51,215.064ZM4139.39,215.064L4283.84,215.064L4283.84,576.167L4139.39,576.167L4139.39,215.064ZM4139.39,576.167L4139.39,720.609L3850.51,720.609L3850.51,576.167L4139.39,576.167ZM5078.26,215.064L5078.26,70.622L5511.59,70.622L5511.59,359.505L5367.15,359.505L5367.15,431.726L5137.71,431.726L5137.71,287.284L5367.15,287.284L5367.15,215.064L5078.26,215.064ZM5078.26,576.167L4933.82,576.167L4933.82,215.064L5078.26,215.064L5078.26,255.594L5078.23,255.594L5078.23,449.546L5078.26,449.546L5078.26,576.167ZM5078.26,576.167L5367.15,576.167L5367.15,503.947L5511.59,503.947L5511.59,720.609L5078.26,720.609L5078.26,576.167ZM2550.54,215.064L2550.54,70.622L2983.86,70.622L2983.86,359.505L2839.42,359.505L2839.42,431.726L2609.98,431.726L2609.98,287.284L2839.42,287.284L2839.42,215.064L2550.54,215.064ZM2550.54,576.167L2406.1,576.167L2406.1,215.064L2550.54,215.064L2550.54,255.594L2550.5,255.594L2550.5,449.546L2550.54,449.546L2550.54,576.167ZM2550.54,576.167L2839.42,576.167L2839.42,503.947L2983.86,503.947L2983.86,720.609L2550.54,720.609L2550.54,576.167ZM5944.91,431.726L6089.35,431.726L6089.35,576.167L5944.91,576.167L5944.91,431.726ZM5728.25,287.284L5944.91,287.284L5944.91,431.726L5728.25,431.726L5728.25,287.284ZM5728.25,142.843L5728.25,-1.599L6089.35,-1.599L6089.35,142.843L5728.25,142.843ZM5728.25,287.284L5583.81,287.284L5583.81,142.843L5728.25,142.843L5728.25,287.284ZM5944.91,576.167L5944.91,720.609L5583.81,720.609L5583.81,576.167L5944.91,576.167ZM6378.24,576.167L6522.68,576.167L6522.68,720.609L6378.24,720.609L6378.24,576.167ZM6378.24,576.167L6233.8,576.167L6233.8,215.064L6161.57,215.064L6161.57,70.622L6233.8,70.622L6233.8,-73.819L6378.24,-73.819L6378.24,70.622L6450.46,70.622L6450.46,215.064L6378.24,215.064L6378.24,576.167ZM872.971,-333.77L872.971,-543.654L1053.58,-543.654L1053.58,-363.045L1234.19,-363.045L1234.19,-182.436L1414.8,-182.436L1414.8,-1.827L1234.19,-1.827L1234.19,178.782L1053.58,178.782L1053.58,720.609L872.971,720.609L872.971,178.782L692.362,178.782L692.362,5.905L836.811,5.905L836.811,-26.519L933.853,-26.519L933.853,-58.944L966.201,-58.944L966.201,-204.071L933.853,-204.071L933.853,-268.92L901.506,-268.92L901.506,-333.77L872.971,-333.77ZM707.183,-91.068L674.835,-91.068L674.835,-188.342L707.183,-188.342L707.183,-220.767L739.53,-220.767L739.53,-253.191L771.877,-253.191L771.877,-285.616L804.225,-285.616L804.225,-318.041L836.572,-318.041L836.572,-285.616L868.92,-285.616L868.92,-220.767L901.267,-220.767L901.267,-155.917L933.614,-155.917L933.614,-91.068L901.267,-91.068L901.267,-58.643L804.225,-58.643L804.225,-26.218L739.53,-26.218L739.53,-58.643L707.183,-58.643L707.183,-91.068ZM544.663,-253.653L512.316,-253.653L512.316,-448.201L544.663,-448.201L544.663,-480.626L577.011,-480.626L577.011,-513.051L641.705,-513.051L641.705,-480.626L674.053,-480.626L674.053,-448.201L706.4,-448.201L706.4,-383.352L641.705,-383.352L641.705,-415.777L609.358,-415.777L609.358,-286.078L641.705,-286.078L641.705,-318.503L706.4,-318.503L706.4,-253.653L674.053,-253.653L674.053,-221.228L641.705,-221.228L641.705,-188.804L577.011,-188.804L577.011,-221.228L544.663,-221.228L544.663,-253.653ZM3344.97,720.609L3200.52,720.609L3200.52,215.064L3056.08,215.064L3056.08,70.622L3200.52,70.622L3200.52,-146.04L3561.63,-146.04L3561.63,-1.599L3344.97,-1.599L3344.97,70.622L3633.85,70.622L3633.85,215.064L3344.97,215.064L3344.97,720.609ZM4789.38,287.284L4789.38,215.064L4572.72,215.064L4572.72,287.284L4500.5,287.284L4500.5,720.609L4356.06,720.609L4356.06,70.622L4500.5,70.622L4500.5,142.843L4572.72,142.843L4572.72,70.622L4789.38,70.622L4789.38,142.843L4861.6,142.843L4861.6,287.284L4789.38,287.284Z"/>
                <clipPath id="_clip1">
                    <path d="M2189.43,576.167L2189.43,720.609L1611.67,720.609L1611.67,-146.04L2189.43,-146.04L2189.43,-1.599L1756.11,-1.599L1756.11,576.167L2189.43,576.167ZM2189.43,-1.599L2333.88,-1.599L2333.88,576.167L2189.43,576.167L2189.43,-1.599ZM3850.51,576.167L3706.07,576.167L3706.07,215.064L3850.51,215.064L3850.51,576.167ZM3850.51,215.064L3850.51,70.622L4139.39,70.622L4139.39,215.064L3850.51,215.064ZM4139.39,215.064L4283.84,215.064L4283.84,576.167L4139.39,576.167L4139.39,215.064ZM4139.39,576.167L4139.39,720.609L3850.51,720.609L3850.51,576.167L4139.39,576.167ZM5078.26,215.064L5078.26,70.622L5511.59,70.622L5511.59,359.505L5367.15,359.505L5367.15,431.726L5137.71,431.726L5137.71,287.284L5367.15,287.284L5367.15,215.064L5078.26,215.064ZM5078.26,576.167L4933.82,576.167L4933.82,215.064L5078.26,215.064L5078.26,255.594L5078.23,255.594L5078.23,449.546L5078.26,449.546L5078.26,576.167ZM5078.26,576.167L5367.15,576.167L5367.15,503.947L5511.59,503.947L5511.59,720.609L5078.26,720.609L5078.26,576.167ZM2550.54,215.064L2550.54,70.622L2983.86,70.622L2983.86,359.505L2839.42,359.505L2839.42,431.726L2609.98,431.726L2609.98,287.284L2839.42,287.284L2839.42,215.064L2550.54,215.064ZM2550.54,576.167L2406.1,576.167L2406.1,215.064L2550.54,215.064L2550.54,255.594L2550.5,255.594L2550.5,449.546L2550.54,449.546L2550.54,576.167ZM2550.54,576.167L2839.42,576.167L2839.42,503.947L2983.86,503.947L2983.86,720.609L2550.54,720.609L2550.54,576.167ZM5944.91,431.726L6089.35,431.726L6089.35,576.167L5944.91,576.167L5944.91,431.726ZM5728.25,287.284L5944.91,287.284L5944.91,431.726L5728.25,431.726L5728.25,287.284ZM5728.25,142.843L5728.25,-1.599L6089.35,-1.599L6089.35,142.843L5728.25,142.843ZM5728.25,287.284L5583.81,287.284L5583.81,142.843L5728.25,142.843L5728.25,287.284ZM5944.91,576.167L5944.91,720.609L5583.81,720.609L5583.81,576.167L5944.91,576.167ZM6378.24,576.167L6522.68,576.167L6522.68,720.609L6378.24,720.609L6378.24,576.167ZM6378.24,576.167L6233.8,576.167L6233.8,215.064L6161.57,215.064L6161.57,70.622L6233.8,70.622L6233.8,-73.819L6378.24,-73.819L6378.24,70.622L6450.46,70.622L6450.46,215.064L6378.24,215.064L6378.24,576.167ZM872.971,-333.77L872.971,-543.654L1053.58,-543.654L1053.58,-363.045L1234.19,-363.045L1234.19,-182.436L1414.8,-182.436L1414.8,-1.827L1234.19,-1.827L1234.19,178.782L1053.58,178.782L1053.58,720.609L872.971,720.609L872.971,178.782L692.362,178.782L692.362,5.905L836.811,5.905L836.811,-26.519L933.853,-26.519L933.853,-58.944L966.201,-58.944L966.201,-204.071L933.853,-204.071L933.853,-268.92L901.506,-268.92L901.506,-333.77L872.971,-333.77ZM707.183,-91.068L674.835,-91.068L674.835,-188.342L707.183,-188.342L707.183,-220.767L739.53,-220.767L739.53,-253.191L771.877,-253.191L771.877,-285.616L804.225,-285.616L804.225,-318.041L836.572,-318.041L836.572,-285.616L868.92,-285.616L868.92,-220.767L901.267,-220.767L901.267,-155.917L933.614,-155.917L933.614,-91.068L901.267,-91.068L901.267,-58.643L804.225,-58.643L804.225,-26.218L739.53,-26.218L739.53,-58.643L707.183,-58.643L707.183,-91.068ZM544.663,-253.653L512.316,-253.653L512.316,-448.201L544.663,-448.201L544.663,-480.626L577.011,-480.626L577.011,-513.051L641.705,-513.051L641.705,-480.626L674.053,-480.626L674.053,-448.201L706.4,-448.201L706.4,-383.352L641.705,-383.352L641.705,-415.777L609.358,-415.777L609.358,-286.078L641.705,-286.078L641.705,-318.503L706.4,-318.503L706.4,-253.653L674.053,-253.653L674.053,-221.228L641.705,-221.228L641.705,-188.804L577.011,-188.804L577.011,-221.228L544.663,-221.228L544.663,-253.653ZM3344.97,720.609L3200.52,720.609L3200.52,215.064L3056.08,215.064L3056.08,70.622L3200.52,70.622L3200.52,-146.04L3561.63,-146.04L3561.63,-1.599L3344.97,-1.599L3344.97,70.622L3633.85,70.622L3633.85,215.064L3344.97,215.064L3344.97,720.609ZM4789.38,287.284L4789.38,215.064L4572.72,215.064L4572.72,287.284L4500.5,287.284L4500.5,720.609L4356.06,720.609L4356.06,70.622L4500.5,70.622L4500.5,142.843L4572.72,142.843L4572.72,70.622L4789.38,70.622L4789.38,142.843L4861.6,142.843L4861.6,287.284L4789.38,287.284Z"/>
                </clipPath>
                <g clip-path="url(#_clip1)">
                    <g>
                        <g transform="matrix(7.4879,0,0,7.4879,-3670.88,-3954.99)">
                            <path d="M606.827,483.609L606.827,455.58L630.947,455.58L630.947,479.7L655.067,479.7L655.067,503.82L679.187,503.82L679.187,527.94L655.067,527.94L655.067,552.06L630.947,552.06L630.947,624.42L606.827,624.42L606.827,552.06L582.706,552.06L582.706,528.973L601.997,528.973L601.997,524.642L614.957,524.642L614.957,520.312L619.277,520.312L619.277,500.931L614.957,500.931L614.957,492.27L610.637,492.27L610.637,483.609L606.827,483.609Z" style="fill:white;"/>
                        </g>
                        <g transform="matrix(7.4879,0,0,7.4879,-3670.88,-3954.99)">
                            <path d="M782.639,605.13L782.639,624.42L705.479,624.42L705.479,508.68L782.639,508.68L782.639,527.97L724.769,527.97L724.769,605.13L782.639,605.13Z" style="fill:white;"/>
                        </g>
                        <g transform="matrix(7.4879,0,0,7.4879,-3670.88,-3954.99)">
                            <rect x="782.639" y="527.97" width="19.29" height="77.16" style="fill:white;"/>
                        </g>
                        <g transform="matrix(7.4879,0,0,7.4879,-3670.88,-3954.99)">
                            <path d="M830.864,605.13L811.574,605.13L811.574,556.905L830.864,556.905L830.864,562.318L830.859,562.318L830.859,588.22L830.864,588.22L830.864,605.13Z" style="fill:white;"/>
                        </g>
                        <g transform="matrix(7.4879,0,0,7.4879,-3670.88,-3954.99)">
                            <path d="M830.864,605.13L869.444,605.13L869.444,595.485L888.734,595.485L888.734,624.42L830.864,624.42L830.864,605.13Z" style="fill:white;"/>
                        </g>
                        <g transform="matrix(7.4879,0,0,7.4879,-3670.88,-3954.99)">
                            <path d="M830.864,556.905L830.864,537.615L888.734,537.615L888.734,576.195L869.444,576.195L869.444,585.84L838.802,585.84L838.802,566.55L869.444,566.55L869.444,556.905L830.864,556.905Z" style="fill:white;"/>
                        </g>
                        <g transform="matrix(7.4879,0,0,7.4879,-3670.88,-3954.99)">
                            <path d="M936.959,624.42L917.669,624.42L917.669,556.905L898.379,556.905L898.379,537.615L917.669,537.615L917.669,508.68L965.894,508.68L965.894,527.97L936.959,527.97L936.959,537.615L975.539,537.615L975.539,556.905L936.959,556.905L936.959,624.42Z" style="fill:white;"/>
                        </g>
                        <g transform="matrix(7.4879,0,0,7.4879,-3670.88,-3954.99)">
                            <rect x="985.184" y="556.905" width="19.29" height="48.225" style="fill:white;"/>
                        </g>
                        <g transform="matrix(7.4879,0,0,7.4879,-3670.88,-3954.99)">
                            <rect x="1004.47" y="605.13" width="38.58" height="19.29" style="fill:white;"/>
                        </g>
                        <g transform="matrix(7.4879,0,0,7.4879,-3670.88,-3954.99)">
                            <rect x="1043.05" y="556.905" width="19.29" height="48.225" style="fill:white;"/>
                        </g>
                        <g transform="matrix(7.4879,0,0,7.4879,-3670.88,-3954.99)">
                            <rect x="1004.47" y="537.615" width="38.58" height="19.29" style="fill:white;"/>
                        </g>
                        <g transform="matrix(7.4879,0,0,7.4879,-3670.88,-3954.99)">
                            <path d="M1129.86,566.55L1129.86,556.905L1100.92,556.905L1100.92,566.55L1091.28,566.55L1091.28,624.42L1071.99,624.42L1071.99,537.615L1091.28,537.615L1091.28,547.26L1100.92,547.26L1100.92,537.615L1129.86,537.615L1129.86,547.26L1139.5,547.26L1139.5,566.55L1129.86,566.55Z" style="fill:white;"/>
                        </g>
                        <g transform="matrix(7.4879,0,0,7.4879,-3670.88,-3954.99)">
                            <path d="M1168.44,605.13L1207.02,605.13L1207.02,595.485L1226.31,595.485L1226.31,624.42L1168.44,624.42L1168.44,605.13Z" style="fill:white;"/>
                        </g>
                        <g transform="matrix(7.4879,0,0,7.4879,-3670.88,-3954.99)">
                            <path d="M1168.44,556.905L1168.44,537.615L1226.31,537.615L1226.31,576.195L1207.02,576.195L1207.02,585.84L1176.38,585.84L1176.38,566.55L1207.02,566.55L1207.02,556.905L1168.44,556.905Z" style="fill:white;"/>
                        </g>
                        <g transform="matrix(7.4879,0,0,7.4879,-3670.88,-3954.99)">
                            <path d="M1168.44,605.13L1149.15,605.13L1149.15,556.905L1168.44,556.905L1168.44,562.318L1168.43,562.318L1168.43,588.22L1168.44,588.22L1168.44,605.13Z" style="fill:white;"/>
                        </g>
                        <g transform="matrix(7.4879,0,0,7.4879,-3670.88,-3954.99)">
                            <rect x="1235.95" y="605.13" width="48.225" height="19.29" style="fill:white;"/>
                        </g>
                        <g transform="matrix(7.4879,0,0,7.4879,-3670.88,-3954.99)">
                            <rect x="1284.18" y="585.84" width="19.29" height="19.29" style="fill:white;"/>
                        </g>
                        <g transform="matrix(7.4879,0,0,7.4879,-3670.88,-3954.99)">
                            <rect x="1255.24" y="566.55" width="28.935" height="19.29" style="fill:white;"/>
                        </g>
                        <g transform="matrix(7.4879,0,0,7.4879,-3670.88,-3954.99)">
                            <rect x="1235.95" y="547.26" width="19.29" height="19.29" style="fill:white;"/>
                        </g>
                        <g transform="matrix(7.4879,0,0,7.4879,-3670.88,-3954.99)">
                            <rect x="1255.24" y="527.97" width="48.225" height="19.29" style="fill:white;"/>
                        </g>
                        <g transform="matrix(7.4879,0,0,7.4879,-3670.88,-3954.99)">
                            <path d="M1342.05,605.13L1322.76,605.13L1322.76,556.905L1313.11,556.905L1313.11,537.615L1322.76,537.615L1322.76,518.325L1342.05,518.325L1342.05,537.615L1351.69,537.615L1351.69,556.905L1342.05,556.905L1342.05,605.13Z" style="fill:white;"/>
                        </g>
                        <g transform="matrix(7.4879,0,0,7.4879,-3670.88,-3954.99)">
                            <rect x="1342.05" y="605.13" width="19.29" height="19.29" style="fill:white;"/>
                        </g>
                    </g>
                    <g transform="matrix(7.4879,0,0,7.4879,-3670.88,-3954.99)">
                        <path d="M584.686,516.022L580.366,516.022L580.366,503.031L584.686,503.031L584.686,498.701L589.006,498.701L589.006,494.371L593.326,494.371L593.326,490.04L597.646,490.04L597.646,485.71L601.966,485.71L601.966,490.04L606.285,490.04L606.285,498.701L610.605,498.701L610.605,507.361L614.925,507.361L614.925,516.022L610.605,516.022L610.605,520.352L597.646,520.352L597.646,524.682L589.006,524.682L589.006,520.352L584.686,520.352L584.686,516.022ZM562.981,494.309L558.661,494.309L558.661,468.327L562.981,468.327L562.981,463.997L567.301,463.997L567.301,459.667L575.941,459.667L575.941,463.997L580.261,463.997L580.261,468.327L584.581,468.327L584.581,476.988L575.941,476.988L575.941,472.657L571.621,472.657L571.621,489.979L575.941,489.979L575.941,485.648L584.581,485.648L584.581,494.309L580.261,494.309L580.261,498.639L575.941,498.639L575.941,502.969L567.301,502.969L567.301,498.639L562.981,498.639L562.981,494.309Z" style="fill:rgb(241,73,0);"/>
                    </g>
                </g>
            </g>
        </g>
    </g>
</svg>
