<?xml version="1.0" encoding="UTF-8" standalone="no"?>

<svg
   width="160mm"
   height="90mm"
   viewBox="0 0 160 90"
   version="1.1"
   id="svg95559"
   xmlns:xlink="http://www.w3.org/1999/xlink"
   xmlns="http://www.w3.org/2000/svg"
   xmlns:svg="http://www.w3.org/2000/svg">
  <defs
     id="defs95556">
    <linearGradient
       xlink:href="#linearGradient4669-7"
       id="linearGradient86680"
       x1="-170"
       y1="460"
       x2="-10"
       y2="370"
       gradientUnits="userSpaceOnUse"
       gradientTransform="translate(190.42446,-316)" />
    <linearGradient
       id="linearGradient4669-7">
      <stop
         style="stop-color:#6900ff;stop-opacity:1;"
         offset="0"
         id="stop4665" />
      <stop
         style="stop-color:#c800ff;stop-opacity:1"
         offset="1"
         id="stop4667" />
    </linearGradient>
  </defs>
  <g
     id="layer1"
     transform="translate(-20.424459,-54)">
    <rect
       style="font-variation-settings:normal;vector-effect:none;fill:url(#linearGradient86680);fill-opacity:1;fill-rule:evenodd;stroke:#000080;stroke-width:0;stroke-linecap:round;stroke-linejoin:round;stroke-miterlimit:4;stroke-dasharray:none;stroke-dashoffset:0;stroke-opacity:1;-inkscape-stroke:none;stop-color:#000000"
       id="rect81935"
       width="160"
       height="90"
       x="20.424459"
       y="54" />
    <g
       aria-label="northern🡽 "
       id="text6799-3-2"
       style="font-size:21.8697px;line-height:1.25;font-family:Inter;-inkscape-font-specification:Inter;letter-spacing:-0.437394px;fill:#ffffff;stroke-width:0.218697"
       transform="translate(190.42446,-316)">
      <path
         d="m -140.62137,422.54611 v -11.19728 h 3.43354 v 1.53087 h 0.0656 q 1.29031,-1.85892 3.45541,-1.85892 1.81519,0 2.84306,1.18096 1.04975,1.1591 1.04975,3.06176 v 7.28261 h -3.56476 v -6.56091 q 0,-0.91853 -0.45926,-1.4434 -0.4374,-0.54674 -1.29032,-0.54674 -0.87478,0 -1.42153,0.65609 -0.54674,0.65609 -0.54674,1.70584 v 6.18912 z"
         style="font-weight:bold;font-family:'Helvetica Display Pro';-inkscape-font-specification:'Helvetica Display Pro Bold'"
         id="path93223" />
      <path
         d="m -124.87519,419.44061 q 0.61235,0.91853 1.74957,0.91853 1.13723,0 1.74958,-0.91853 0.63422,-0.91852 0.63422,-2.47127 0,-1.55275 -0.63422,-2.47128 -0.61235,-0.94039 -1.74958,-0.94039 -1.13722,0 -1.74957,0.91852 -0.61236,0.91853 -0.61236,2.49315 0,1.55275 0.61236,2.47127 z m 6.07977,1.77145 q -1.64022,1.68397 -4.30833,1.68397 -2.6681,0 -4.3302,-1.68397 -1.6621,-1.68397 -1.6621,-4.24272 0,-2.55876 1.6621,-4.24272 1.6621,-1.68397 4.3302,-1.68397 2.66811,0 4.30833,1.68397 1.6621,1.68396 1.6621,4.24272 0,2.55875 -1.6621,4.24272 z"
         style="font-weight:bold;font-family:'Helvetica Display Pro';-inkscape-font-specification:'Helvetica Display Pro Bold'"
         id="path93225" />
      <path
         d="m -116.36787,422.54611 v -11.19728 h 3.41167 v 1.74957 h 0.0656 q 1.13723,-1.92453 3.06176,-1.92453 0.503,0 0.69983,0.0875 v 3.06176 h -0.0875 q -1.6621,-0.24057 -2.62436,0.59048 -0.96227,0.80918 -0.96227,2.60249 v 5.03003 z"
         style="font-weight:bold;font-family:'Helvetica Display Pro';-inkscape-font-specification:'Helvetica Display Pro Bold'"
         id="path93227" />
      <path
         d="m -103.77093,422.67733 q -1.70584,0 -2.64624,-0.67796 -0.91852,-0.69983 -0.91852,-2.40567 v -6.01416 h -1.48714 v -2.23071 h 1.48714 v -3.5429 h 3.47728 v 3.5429 h 2.03388 v 2.23071 h -2.03388 v 5.24872 q 0,0.61235 0.30617,0.85292 0.32805,0.24057 0.9404,0.24057 0.17496,0 0.45926,0 0.28431,-0.0219 0.32805,-0.0219 v 2.60249 q -0.61235,0.17496 -1.9464,0.17496 z"
         style="font-weight:bold;font-family:'Helvetica Display Pro';-inkscape-font-specification:'Helvetica Display Pro Bold'"
         id="path93229" />
      <path
         d="m -100.97161,422.54611 v -15.63683 h 3.564758 v 5.81734 h 0.06561 q 1.290312,-1.70584 3.324194,-1.70584 1.815185,0 2.843061,1.18096 1.049746,1.1591 1.049746,3.06176 v 7.28261 h -3.564761 v -6.56091 q 0,-0.91853 -0.459264,-1.4434 -0.437394,-0.54674 -1.290312,-0.54674 -0.874788,0 -1.421531,0.65609 -0.546742,0.65609 -0.546742,1.70584 v 6.18912 z"
         style="font-weight:bold;font-family:'Helvetica Display Pro';-inkscape-font-specification:'Helvetica Display Pro Bold'"
         id="path93231" />
      <path
         d="m -83.47586,422.87416 q -2.711843,0 -4.352071,-1.6621 -1.618357,-1.68397 -1.618357,-4.28646 0,-2.53689 1.596488,-4.22085 1.618357,-1.68397 4.155243,-1.68397 2.296318,0 3.827197,1.39966 2.012012,1.83706 1.968273,5.44556 h -8.04805 q 0.174958,1.15909 0.809179,1.81518 0.634222,0.63422 1.705837,0.63422 1.377791,0 1.858924,-1.11535 h 3.477283 q -0.393655,1.61836 -1.880795,2.64623 -1.465269,1.02788 -3.499151,1.02788 z m -2.449407,-7.12952 h 4.417679 q -0.08748,-1.00601 -0.67796,-1.59649 -0.568612,-0.59048 -1.4434,-0.59048 -1.902664,0 -2.296319,2.18697 z"
         style="font-weight:bold;font-family:'Helvetica Display Pro';-inkscape-font-specification:'Helvetica Display Pro Bold'"
         id="path93233" />
      <path
         d="m -77.133662,422.54611 v -11.19728 h 3.411674 v 1.74957 h 0.06561 q 1.137224,-1.92453 3.061758,-1.92453 0.503003,0 0.69983,0.0875 v 3.06176 h -0.08748 q -1.662097,-0.24057 -2.624364,0.59048 -0.962267,0.80918 -0.962267,2.60249 v 5.03003 z"
         style="font-weight:bold;font-family:'Helvetica Display Pro';-inkscape-font-specification:'Helvetica Display Pro Bold'"
         id="path93235" />
      <path
         d="m -69.194971,422.54611 v -11.19728 h 3.433542 v 1.53087 h 0.06561 q 1.290313,-1.85892 3.455413,-1.85892 1.815185,0 2.843061,1.18096 1.049746,1.1591 1.049746,3.06176 v 7.28261 h -3.564762 v -6.56091 q 0,-0.91853 -0.459263,-1.4434 -0.437394,-0.54674 -1.290312,-0.54674 -0.874788,0 -1.421531,0.65609 -0.546742,0.65609 -0.546742,1.70584 v 6.18912 z"
         style="letter-spacing:-1.96827px"
         id="path93237" />
      <path
         d="m -39.37863,418.82997 -4.218033,4.21803 -0.117464,-8.14774 -8.17978,8.19046 -2.915248,-2.91525 8.17978,-8.19046 -8.147745,-0.10678 4.218033,-4.21804 h 11.180457 z"
         style="letter-spacing:-1.96827px"
         id="path93239" />
    </g>
  </g>
</svg>
